<svg width="376" height="352" viewBox="0 0 376 352" fill="none" xmlns="http://www.w3.org/2000/svg">
<path d="M137.144 284.913C182.758 263.383 2 349.5 2 349.5L170.501 256.809L217 232.707L281.158 217.214C281.158 217.214 346.351 185.365 349.782 175.897C353.213 166.428 329.195 13.2117 329.195 13.2117L353.213 29.5663C353.213 29.5663 376.374 193.112 373.8 196.555C371.227 199.998 296.573 238 294 238C293.92 238 293.847 238 293.781 237.999C293.68 238.108 293.115 238.326 291.451 238.733C288.319 239.498 242.499 246.274 208.177 251.306C177.745 265.72 149.243 279.195 137.144 284.913Z" fill="#603813"/>
<path d="M70.9963 53.6678C70.9963 53.6678 81.2899 189.669 87.2945 202.581C93.2991 215.492 137.047 232.707 137.047 232.707C137.047 232.707 130.362 240.789 125.038 244.758C95.0147 267.138 2 349.5 2 349.5M2 349.5C2 349.5 196.557 256.809 131.042 287.796C131.042 287.796 200.524 254.969 252.85 230.125C260.372 226.554 170.501 256.809 170.501 256.809M2 349.5L170.501 256.809M170.501 256.809C170.501 256.809 286.403 239.965 291.451 238.733C296.5 237.5 291.427 238 294 238C296.573 238 371.227 199.998 373.8 196.555C376.374 193.112 353.213 29.5663 353.213 29.5663L329.195 13.2117M170.501 256.809L217 232.707L281.158 217.214C281.158 217.214 346.351 185.365 349.782 175.897C353.213 166.428 329.195 13.2117 329.195 13.2117M329.195 13.2117C329.195 13.2117 300.887 2.88246 288.02 2.02175C275.153 1.16104 105.308 26.1232 100.162 26.984C95.0147 27.8448 93.2991 31.2878 93.2991 31.2878M62.4182 31.2878L95.0147 61.4147M81.2899 33.8701L93.2991 45.9209" stroke="#603813" stroke-width="4"/>
</svg>
