<svg width="421" height="304" viewBox="0 0 421 304" fill="none" xmlns="http://www.w3.org/2000/svg">
<path d="M46.5 67.5L89.5 44.5L278 43L284.5 46.5C284.5 46.5 291.5 48 299 54C306.5 60 310 66 310 66L316.5 202.5L315 213.5L308.5 224.5L296 230L323 237.5L410 246.5L206 267.5L127 264.5L46.5 231V67.5Z" fill="white"/>
<path d="M117.693 279.713C122.864 280.231 420 247 420 247L190.581 263.385L124.891 256.971C124.891 256.971 55.9004 234.505 51.1848 225.606C46.4692 216.708 48.9303 61.6395 48.9303 61.6395L27.4217 81.1776C27.4217 81.1776 27.2477 246.355 30.2752 249.407C33.3027 252.458 112.519 279.7 115.067 279.342C115.147 279.331 115.219 279.32 115.284 279.31C115.399 279.405 115.989 279.542 117.693 279.713Z" fill="#603813"/>
<path d="M310.246 65.7676C310.246 65.7676 318.981 201.878 314.831 215.499C310.682 229.121 292.001 231 292.001 231C292.001 231 313.489 235.198 320.001 236.5C338.001 240.1 420 247 420 247M420 247L320.001 256.15L281.5 259.436L420 247ZM420 247C420 247 122.864 280.231 117.693 279.713C112.522 279.195 117.615 278.984 115.067 279.342C112.519 279.7 33.3028 252.458 30.2752 249.407C27.2477 246.355 27.4217 81.1776 27.4217 81.1776L48.9303 61.6395M420 247L190.581 263.385L124.891 256.971C124.891 256.971 55.9004 234.505 51.1848 225.606C46.4692 216.708 48.9303 61.6395 48.9303 61.6395M48.9303 61.6395C48.9303 61.6395 75.5248 47.4711 88.1468 44.828C100.769 42.1849 272.435 43.2663 277.651 43.4025C282.868 43.5386 285.046 46.7094 285.046 46.7094M315.626 42.4116L287.54 76.7818M297.298 47.5952L287.082 61.2" stroke="#603813" stroke-width="4"/>
</svg>
