<svg width="219" height="41" viewBox="0 0 219 41" fill="none" xmlns="http://www.w3.org/2000/svg">
<g filter="url(#filter0_d)">
<path d="M206.305 0L4 4.71429L15.3948 33H215L206.305 0Z" fill="#603813"/>
</g>
<g filter="url(#filter1_d)">
<path d="M31.568 14.368C31.568 14.2507 31.5307 14.1547 31.456 14.08C31.3813 14.0053 31.2907 13.968 31.184 13.968C31.056 13.968 30.944 14.032 30.848 14.16L30.176 13.712C30.4213 13.36 30.752 13.184 31.168 13.184C31.7013 13.184 32.0693 13.4293 32.272 13.92C32.336 14.0587 32.368 14.208 32.368 14.368V17.088H37.088V13.248H37.872V22H37.088V17.808H32.368V22H31.568V14.368ZM44.8411 20.976C44.8411 21.0827 44.8891 21.184 44.9851 21.28C45.0811 21.376 45.1825 21.424 45.2891 21.424C45.4385 21.424 45.5611 21.3547 45.6571 21.216L46.2331 21.616C46.0411 21.9573 45.7265 22.128 45.2891 22.128C44.9905 22.128 44.7345 22.032 44.5211 21.84C44.3185 21.648 44.1958 21.4133 44.1531 21.136C43.7691 21.7973 43.1185 22.128 42.2011 22.128C41.3371 22.128 40.6651 21.8187 40.1851 21.2C39.7158 20.5813 39.4811 19.792 39.4811 18.832C39.4811 17.8613 39.7478 17.0667 40.2811 16.448C40.8145 15.8187 41.5398 15.504 42.4571 15.504C43.0331 15.504 43.5931 15.5413 44.1371 15.616H44.8411V20.976ZM44.1371 16.272C43.9665 16.272 43.6998 16.256 43.3371 16.224C42.9851 16.1813 42.6971 16.16 42.4731 16.16C41.7478 16.16 41.1878 16.4053 40.7931 16.896C40.3985 17.3867 40.2011 18.0213 40.2011 18.8C40.2011 19.5467 40.3718 20.176 40.7131 20.688C41.0545 21.2 41.5505 21.456 42.2011 21.456C42.7558 21.456 43.2145 21.2853 43.5771 20.944C43.9505 20.6027 44.1371 20.1547 44.1371 19.6V16.272ZM46.6653 15.968L47.0333 15.392C47.5026 15.7013 47.8386 16.1653 48.0413 16.784L49.4013 20.928L51.1453 15.616H51.8493L49.7693 22H49.0493L47.2893 16.688C47.1506 16.3787 46.9426 16.1387 46.6653 15.968ZM56.0181 21.456C56.6155 21.456 57.2821 21.2533 58.0181 20.848L58.3541 21.392C57.6715 21.8827 56.8928 22.128 56.0181 22.128C54.0768 22.128 53.1061 21.0293 53.1061 18.832C53.1061 17.904 53.3568 17.12 53.8581 16.48C54.3595 15.8293 55.0315 15.504 55.8741 15.504C56.5461 15.504 57.1008 15.6747 57.5381 16.016C57.9755 16.3467 58.1941 16.8213 58.1941 17.44C58.1941 18.144 57.9275 18.656 57.3941 18.976C56.8715 19.2853 56.1995 19.44 55.3781 19.44H53.8741C54.0448 20.784 54.7595 21.456 56.0181 21.456ZM53.8261 18.768H55.3781C56.7755 18.768 57.4741 18.3253 57.4741 17.44C57.4741 17.0027 57.3248 16.6773 57.0261 16.464C56.7381 16.24 56.3541 16.128 55.8741 16.128C55.2448 16.128 54.7435 16.3947 54.3701 16.928C54.0075 17.4507 53.8261 18.064 53.8261 18.768ZM64.5568 17.024C64.5568 16.7573 64.3221 16.4427 63.8528 16.08L64.2368 15.504C64.6954 15.8027 64.9994 16.144 65.1488 16.528C65.2234 16.6773 65.2608 16.8427 65.2608 17.024V19.904C65.2608 20.928 65.7408 21.44 66.7008 21.44C67.2021 21.44 67.6661 21.2853 68.0928 20.976C68.5194 20.656 68.7541 20.2667 68.7968 19.808V15.6H69.4848V23.504C69.4848 24.176 69.3088 24.6987 68.9568 25.072C68.6154 25.456 68.1301 25.648 67.5008 25.648C66.9674 25.648 66.5301 25.4507 66.1888 25.056C65.8581 24.672 65.6928 24.2027 65.6928 23.648C65.6928 22.8907 65.9061 22.3733 66.3328 22.096C65.1488 21.9787 64.5568 21.36 64.5568 20.24V17.024ZM67.5008 24.976C67.9168 24.976 68.2368 24.8427 68.4608 24.576C68.6954 24.32 68.8128 23.9787 68.8128 23.552V21.248L68.6688 21.376C68.4874 21.5467 68.0448 21.8187 67.3408 22.192C67.0101 22.3627 66.7648 22.5493 66.6048 22.752C66.4554 22.9653 66.3808 23.2587 66.3808 23.632C66.3808 24.0053 66.4821 24.32 66.6848 24.576C66.8874 24.8427 67.1594 24.976 67.5008 24.976ZM74.2745 15.504C75.2452 15.504 76.0132 15.808 76.5785 16.416C77.1545 17.024 77.4425 17.8187 77.4425 18.8C77.4425 19.792 77.1545 20.5973 76.5785 21.216C76.0025 21.824 75.2345 22.128 74.2745 22.128C73.3038 22.128 72.5305 21.824 71.9545 21.216C71.3785 20.608 71.0905 19.8133 71.0905 18.832C71.0905 17.8507 71.3785 17.0507 71.9545 16.432C72.5412 15.8133 73.3145 15.504 74.2745 15.504ZM76.0665 16.864C75.6398 16.3947 75.0425 16.16 74.2745 16.16C73.5065 16.16 72.9038 16.4053 72.4665 16.896C72.0292 17.376 71.8105 18.0107 71.8105 18.8C71.8105 19.6 72.0292 20.2453 72.4665 20.736C72.9038 21.216 73.5065 21.456 74.2745 21.456C75.0425 21.456 75.6398 21.2107 76.0665 20.72C76.5038 20.2293 76.7225 19.5787 76.7225 18.768C76.7225 17.968 76.5038 17.3333 76.0665 16.864ZM79.3224 17.024C79.3224 16.7573 79.0877 16.4427 78.6184 16.08L79.0024 15.504C79.4397 15.792 79.749 16.1333 79.9304 16.528C79.9944 16.688 80.0264 16.8533 80.0264 17.024V19.904C80.0264 20.928 80.5064 21.44 81.4664 21.44C81.9464 21.44 82.3357 21.3333 82.6344 21.12C82.933 20.9067 83.2424 20.5867 83.5624 20.16V15.6H84.2504V20.992C84.2504 21.1093 84.2984 21.216 84.3944 21.312C84.4904 21.3973 84.5917 21.44 84.6984 21.44C84.8477 21.44 84.9704 21.376 85.0664 21.248L85.6584 21.648C85.3704 21.9787 85.0504 22.144 84.6984 22.144C84.3784 22.144 84.1117 22.0373 83.8984 21.824C83.685 21.6 83.5677 21.328 83.5464 21.008C83.013 21.7333 82.3197 22.096 81.4664 22.096C80.1117 22.096 79.397 21.4773 79.3224 20.24V17.024ZM95.5735 17.696C95.5735 17.1627 95.4562 16.7733 95.2215 16.528C94.9975 16.2827 94.6295 16.16 94.1175 16.16C93.7868 16.16 93.4828 16.2293 93.2055 16.368C92.9282 16.5067 92.7148 16.656 92.5655 16.816C92.4268 16.9653 92.2508 17.1787 92.0375 17.456V22H91.3335V17.488C91.3335 16.8053 91.1628 16.2933 90.8215 15.952L91.2535 15.536C91.6162 15.7813 91.8508 16.176 91.9575 16.72C92.5122 15.9093 93.2322 15.504 94.1175 15.504C95.5575 15.504 96.2775 16.1867 96.2775 17.552V21.008C96.2775 21.1147 96.3202 21.216 96.4055 21.312C96.5015 21.408 96.6082 21.456 96.7255 21.456C96.8748 21.456 96.9975 21.392 97.0935 21.264L97.6695 21.648C97.4455 21.9893 97.1308 22.16 96.7255 22.16C96.4055 22.16 96.1335 22.048 95.9095 21.824C95.6855 21.6 95.5735 21.328 95.5735 21.008V17.696ZM101.674 21.456C102.272 21.456 102.938 21.2533 103.674 20.848L104.01 21.392C103.328 21.8827 102.549 22.128 101.674 22.128C99.733 22.128 98.7624 21.0293 98.7624 18.832C98.7624 17.904 99.013 17.12 99.5144 16.48C100.016 15.8293 100.688 15.504 101.53 15.504C102.202 15.504 102.757 15.6747 103.194 16.016C103.632 16.3467 103.85 16.8213 103.85 17.44C103.85 18.144 103.584 18.656 103.05 18.976C102.528 19.2853 101.856 19.44 101.034 19.44H99.5304C99.701 20.784 100.416 21.456 101.674 21.456ZM99.4824 18.768H101.034C102.432 18.768 103.13 18.3253 103.13 17.44C103.13 17.0027 102.981 16.6773 102.682 16.464C102.394 16.24 102.01 16.128 101.53 16.128C100.901 16.128 100.4 16.3947 100.026 16.928C99.6637 17.4507 99.4824 18.064 99.4824 18.768ZM105.04 15.968L105.408 15.392C105.878 15.7013 106.214 16.1653 106.416 16.784L107.776 20.928L109.52 15.616H110.224L108.144 22H107.424L105.664 16.688C105.526 16.3787 105.318 16.1387 105.04 15.968ZM114.393 21.456C114.99 21.456 115.657 21.2533 116.393 20.848L116.729 21.392C116.046 21.8827 115.268 22.128 114.393 22.128C112.452 22.128 111.481 21.0293 111.481 18.832C111.481 17.904 111.732 17.12 112.233 16.48C112.734 15.8293 113.406 15.504 114.249 15.504C114.921 15.504 115.476 15.6747 115.913 16.016C116.35 16.3467 116.569 16.8213 116.569 17.44C116.569 18.144 116.302 18.656 115.769 18.976C115.246 19.2853 114.574 19.44 113.753 19.44H112.249C112.42 20.784 113.134 21.456 114.393 21.456ZM112.201 18.768H113.753C115.15 18.768 115.849 18.3253 115.849 17.44C115.849 17.0027 115.7 16.6773 115.401 16.464C115.113 16.24 114.729 16.128 114.249 16.128C113.62 16.128 113.118 16.3947 112.745 16.928C112.382 17.4507 112.201 18.064 112.201 18.768ZM121.772 16.272C121.441 16.208 121.159 16.176 120.924 16.176C120.263 16.176 119.697 16.592 119.228 17.424V22H118.524V17.488C118.524 16.8053 118.353 16.2933 118.012 15.952L118.444 15.536C118.775 15.7813 119.009 16.1547 119.148 16.656C119.585 15.888 120.209 15.504 121.02 15.504C121.201 15.504 121.452 15.536 121.772 15.6V16.272ZM129.822 22.128C128.872 22.128 128.083 22.0427 127.454 21.872V12.704H128.158V16.464C128.606 15.824 129.246 15.504 130.078 15.504C130.952 15.504 131.624 15.8133 132.094 16.432C132.574 17.04 132.814 17.824 132.814 18.784C132.814 19.7653 132.547 20.5707 132.014 21.2C131.48 21.8187 130.75 22.128 129.822 22.128ZM128.158 21.344L128.83 21.424C129.022 21.4453 129.347 21.456 129.806 21.456C130.531 21.456 131.091 21.216 131.486 20.736C131.88 20.2453 132.078 19.6107 132.078 18.832C132.078 18.0747 131.907 17.44 131.566 16.928C131.224 16.416 130.728 16.16 130.078 16.16C129.566 16.16 129.128 16.3147 128.766 16.624C128.414 16.9333 128.211 17.328 128.158 17.808V21.344ZM137.128 21.456C137.725 21.456 138.392 21.2533 139.128 20.848L139.464 21.392C138.781 21.8827 138.002 22.128 137.128 22.128C135.186 22.128 134.215 21.0293 134.215 18.832C134.215 17.904 134.466 17.12 134.968 16.48C135.469 15.8293 136.141 15.504 136.984 15.504C137.656 15.504 138.21 15.6747 138.648 16.016C139.085 16.3467 139.304 16.8213 139.304 17.44C139.304 18.144 139.037 18.656 138.504 18.976C137.981 19.2853 137.309 19.44 136.488 19.44H134.984C135.154 20.784 135.869 21.456 137.128 21.456ZM134.936 18.768H136.488C137.885 18.768 138.584 18.3253 138.584 17.44C138.584 17.0027 138.434 16.6773 138.136 16.464C137.848 16.24 137.464 16.128 136.984 16.128C136.354 16.128 135.853 16.3947 135.48 16.928C135.117 17.4507 134.936 18.064 134.936 18.768ZM143.799 21.456C144.397 21.456 145.063 21.2533 145.799 20.848L146.135 21.392C145.453 21.8827 144.674 22.128 143.799 22.128C141.858 22.128 140.887 21.0293 140.887 18.832C140.887 17.904 141.138 17.12 141.639 16.48C142.141 15.8293 142.813 15.504 143.655 15.504C144.327 15.504 144.882 15.6747 145.319 16.016C145.757 16.3467 145.975 16.8213 145.975 17.44C145.975 18.144 145.709 18.656 145.175 18.976C144.653 19.2853 143.981 19.44 143.159 19.44H141.655C141.826 20.784 142.541 21.456 143.799 21.456ZM141.607 18.768H143.159C144.557 18.768 145.255 18.3253 145.255 17.44C145.255 17.0027 145.106 16.6773 144.807 16.464C144.519 16.24 144.135 16.128 143.655 16.128C143.026 16.128 142.525 16.3947 142.151 16.928C141.789 17.4507 141.607 18.064 141.607 18.768ZM152.042 17.696C152.042 17.1627 151.925 16.7733 151.69 16.528C151.466 16.2827 151.098 16.16 150.586 16.16C150.256 16.16 149.952 16.2293 149.674 16.368C149.397 16.5067 149.184 16.656 149.034 16.816C148.896 16.9653 148.72 17.1787 148.506 17.456V22H147.802V17.488C147.802 16.8053 147.632 16.2933 147.29 15.952L147.722 15.536C148.085 15.7813 148.32 16.176 148.426 16.72C148.981 15.9093 149.701 15.504 150.586 15.504C152.026 15.504 152.746 16.1867 152.746 17.552V21.008C152.746 21.1147 152.789 21.216 152.874 21.312C152.97 21.408 153.077 21.456 153.194 21.456C153.344 21.456 153.466 21.392 153.562 21.264L154.138 21.648C153.914 21.9893 153.6 22.16 153.194 22.16C152.874 22.16 152.602 22.048 152.378 21.824C152.154 21.6 152.042 21.328 152.042 21.008V17.696ZM163.85 17.552C163.85 16.6027 163.37 16.128 162.41 16.128C161.93 16.128 161.535 16.24 161.226 16.464C160.917 16.688 160.613 17.008 160.314 17.424V21.968H159.61V12.672H160.314V16.592C160.847 15.8347 161.546 15.456 162.41 15.456C163.839 15.456 164.554 16.144 164.554 17.52V20.944C164.554 21.0613 164.597 21.168 164.682 21.264C164.778 21.3493 164.879 21.392 164.986 21.392C165.146 21.392 165.269 21.328 165.354 21.2L165.946 21.584C165.722 21.9253 165.402 22.096 164.986 22.096C164.677 22.096 164.41 21.984 164.186 21.76C163.962 21.5253 163.85 21.2533 163.85 20.944V17.552ZM169.94 21.456C170.537 21.456 171.204 21.2533 171.94 20.848L172.276 21.392C171.593 21.8827 170.815 22.128 169.94 22.128C167.999 22.128 167.028 21.0293 167.028 18.832C167.028 17.904 167.279 17.12 167.78 16.48C168.281 15.8293 168.953 15.504 169.796 15.504C170.468 15.504 171.023 15.6747 171.46 16.016C171.897 16.3467 172.116 16.8213 172.116 17.44C172.116 18.144 171.849 18.656 171.316 18.976C170.793 19.2853 170.121 19.44 169.3 19.44H167.796C167.967 20.784 168.681 21.456 169.94 21.456ZM167.748 18.768H169.3C170.697 18.768 171.396 18.3253 171.396 17.44C171.396 17.0027 171.247 16.6773 170.948 16.464C170.66 16.24 170.276 16.128 169.796 16.128C169.167 16.128 168.665 16.3947 168.292 16.928C167.929 17.4507 167.748 18.064 167.748 18.768ZM177.319 16.272C176.988 16.208 176.706 16.176 176.471 16.176C175.81 16.176 175.244 16.592 174.775 17.424V22H174.071V17.488C174.071 16.8053 173.9 16.2933 173.559 15.952L173.991 15.536C174.322 15.7813 174.556 16.1547 174.695 16.656C175.132 15.888 175.756 15.504 176.567 15.504C176.748 15.504 176.999 15.536 177.319 15.6V16.272ZM181.534 21.456C182.131 21.456 182.798 21.2533 183.534 20.848L183.87 21.392C183.187 21.8827 182.408 22.128 181.534 22.128C179.592 22.128 178.622 21.0293 178.622 18.832C178.622 17.904 178.872 17.12 179.374 16.48C179.875 15.8293 180.547 15.504 181.39 15.504C182.062 15.504 182.616 15.6747 183.054 16.016C183.491 16.3467 183.71 16.8213 183.71 17.44C183.71 18.144 183.443 18.656 182.91 18.976C182.387 19.2853 181.715 19.44 180.894 19.44H179.39C179.56 20.784 180.275 21.456 181.534 21.456ZM179.342 18.768H180.894C182.291 18.768 182.99 18.3253 182.99 17.44C182.99 17.0027 182.84 16.6773 182.542 16.464C182.254 16.24 181.87 16.128 181.39 16.128C180.76 16.128 180.259 16.3947 179.886 16.928C179.523 17.4507 179.342 18.064 179.342 18.768ZM185.806 14.624C185.806 14.72 185.843 14.8053 185.918 14.88C185.992 14.9547 186.088 14.992 186.206 14.992H186.27L186.446 15.648C186.339 15.6693 186.259 15.68 186.206 15.68C185.896 15.68 185.635 15.584 185.422 15.392C185.219 15.1893 185.118 14.9333 185.118 14.624C185.118 14.1227 185.352 13.728 185.822 13.44C186.291 13.152 186.835 13.008 187.454 13.008C188.211 13.008 188.83 13.248 189.31 13.728C189.8 14.208 190.046 14.8213 190.046 15.568C190.046 16.56 189.534 17.3493 188.51 17.936C188.467 17.9573 188.371 18.0107 188.222 18.096C188.083 18.1813 187.987 18.2453 187.934 18.288C187.88 18.32 187.8 18.3733 187.694 18.448C187.587 18.5227 187.496 18.5973 187.422 18.672C187.347 18.736 187.278 18.8053 187.214 18.88C187.054 19.072 186.974 19.2907 186.974 19.536C186.974 19.6 186.995 19.7813 187.038 20.08L186.382 20.224C186.328 19.9787 186.302 19.7493 186.302 19.536C186.302 19.1307 186.403 18.784 186.606 18.496C186.819 18.208 187.075 17.9787 187.374 17.808C187.683 17.6373 187.987 17.4667 188.286 17.296C188.584 17.1253 188.835 16.896 189.038 16.608C189.251 16.32 189.358 15.9733 189.358 15.568C189.358 15.0133 189.176 14.56 188.814 14.208C188.462 13.856 188.014 13.68 187.47 13.68C187.064 13.68 186.686 13.76 186.334 13.92C185.982 14.08 185.806 14.3147 185.806 14.624ZM186.478 21.76C186.36 21.6427 186.302 21.4987 186.302 21.328C186.302 21.1573 186.36 21.0133 186.478 20.896C186.595 20.7787 186.739 20.72 186.91 20.72C187.08 20.72 187.224 20.7787 187.342 20.896C187.459 21.0133 187.518 21.1573 187.518 21.328C187.518 21.4987 187.459 21.6427 187.342 21.76C187.224 21.8773 187.08 21.936 186.91 21.936C186.739 21.936 186.595 21.8773 186.478 21.76Z" fill="white"/>
<path d="M30.848 14.16L30.6816 14.4096L30.9177 14.567L31.088 14.34L30.848 14.16ZM30.176 13.712L29.9299 13.5405L29.7548 13.7917L30.0096 13.9616L30.176 13.712ZM32.272 13.92L31.9945 14.0346L31.9996 14.0457L32.272 13.92ZM32.368 17.088H32.068V17.388H32.368V17.088ZM37.088 17.088V17.388H37.388V17.088H37.088ZM37.088 13.248V12.948H36.788V13.248H37.088ZM37.872 13.248H38.172V12.948H37.872V13.248ZM37.872 22V22.3H38.172V22H37.872ZM37.088 22H36.788V22.3H37.088V22ZM37.088 17.808H37.388V17.508H37.088V17.808ZM32.368 17.808V17.508H32.068V17.808H32.368ZM32.368 22V22.3H32.668V22H32.368ZM31.568 22H31.268V22.3H31.568V22ZM31.868 14.368C31.868 14.1808 31.8056 14.0053 31.6681 13.8679L31.2439 14.2921C31.2558 14.304 31.268 14.3205 31.268 14.368H31.868ZM31.6681 13.8679C31.5366 13.7363 31.3693 13.668 31.184 13.668V14.268C31.212 14.268 31.2261 14.2744 31.2439 14.2921L31.6681 13.8679ZM31.184 13.668C30.9381 13.668 30.7449 13.7974 30.608 13.98L31.088 14.34C31.1431 14.2666 31.1739 14.268 31.184 14.268V13.668ZM31.0144 13.9104L30.3424 13.4624L30.0096 13.9616L30.6816 14.4096L31.0144 13.9104ZM30.4221 13.8835C30.6135 13.609 30.8537 13.484 31.168 13.484V12.884C30.6503 12.884 30.2292 13.111 29.9299 13.5405L30.4221 13.8835ZM31.168 13.484C31.3878 13.484 31.5522 13.534 31.6776 13.6176C31.8028 13.7011 31.9115 13.833 31.9947 14.0345L32.5493 13.8055C32.4298 13.5163 32.2532 13.2802 32.0104 13.1184C31.7678 12.9566 31.4815 12.884 31.168 12.884V13.484ZM31.9996 14.0457C32.0446 14.1431 32.068 14.2493 32.068 14.368H32.668C32.668 14.1667 32.6274 13.9742 32.5444 13.7943L31.9996 14.0457ZM32.068 14.368V17.088H32.668V14.368H32.068ZM32.368 17.388H37.088V16.788H32.368V17.388ZM37.388 17.088V13.248H36.788V17.088H37.388ZM37.088 13.548H37.872V12.948H37.088V13.548ZM37.572 13.248V22H38.172V13.248H37.572ZM37.872 21.7H37.088V22.3H37.872V21.7ZM37.388 22V17.808H36.788V22H37.388ZM37.088 17.508H32.368V18.108H37.088V17.508ZM32.068 17.808V22H32.668V17.808H32.068ZM32.368 21.7H31.568V22.3H32.368V21.7ZM31.868 22V14.368H31.268V22H31.868ZM44.9851 21.28L44.773 21.4921L44.773 21.4921L44.9851 21.28ZM45.6571 21.216L45.8282 20.9696L45.5815 20.7982L45.4105 21.0452L45.6571 21.216ZM46.2331 21.616L46.4946 21.7631L46.6284 21.5252L46.4042 21.3696L46.2331 21.616ZM44.5211 21.84L44.3147 22.0579L44.3204 22.063L44.5211 21.84ZM44.1531 21.136L44.4496 21.0904L44.3204 20.2504L43.8937 20.9854L44.1531 21.136ZM40.1851 21.2L39.9461 21.3813L39.9481 21.3839L40.1851 21.2ZM40.2811 16.448L40.5084 16.6439L40.51 16.642L40.2811 16.448ZM44.1371 15.616L44.0963 15.9132L44.1166 15.916H44.1371V15.616ZM44.8411 15.616H45.1411V15.316H44.8411V15.616ZM44.1371 16.272H44.4371V15.972H44.1371V16.272ZM43.3371 16.224L43.301 16.522L43.3108 16.5228L43.3371 16.224ZM40.7931 16.896L40.5594 16.708L40.5594 16.708L40.7931 16.896ZM40.7131 20.688L40.9627 20.5216L40.9627 20.5216L40.7131 20.688ZM43.5771 20.944L43.3747 20.7226L43.3715 20.7255L43.5771 20.944ZM44.5411 20.976C44.5411 21.1824 44.6368 21.356 44.773 21.4921L45.1973 21.0679C45.1414 21.012 45.1411 20.9829 45.1411 20.976H44.5411ZM44.773 21.4921C44.9091 21.6283 45.0827 21.724 45.2891 21.724V21.124C45.2822 21.124 45.2531 21.1237 45.1973 21.0679L44.773 21.4921ZM45.2891 21.724C45.5508 21.724 45.7602 21.5942 45.9038 21.3868L45.4105 21.0452C45.3621 21.1151 45.3261 21.124 45.2891 21.124V21.724ZM45.486 21.4624L46.062 21.8624L46.4042 21.3696L45.8282 20.9696L45.486 21.4624ZM45.9717 21.4689C45.8399 21.7031 45.6334 21.828 45.2891 21.828V22.428C45.8195 22.428 46.2423 22.2115 46.4946 21.7631L45.9717 21.4689ZM45.2891 21.828C45.0613 21.828 44.8777 21.7573 44.7218 21.617L44.3204 22.063C44.5913 22.3067 44.9197 22.428 45.2891 22.428V21.828ZM44.7274 21.6222C44.5734 21.4763 44.4822 21.3023 44.4496 21.0904L43.8566 21.1816C43.9093 21.5244 44.0635 21.8197 44.3148 22.0578L44.7274 21.6222ZM43.8937 20.9854C43.5749 21.5344 43.0367 21.828 42.2011 21.828V22.428C43.2002 22.428 43.9633 22.0603 44.4126 21.2866L43.8937 20.9854ZM42.2011 21.828C41.4188 21.828 40.8389 21.5533 40.4222 21.0161L39.9481 21.3839C40.4913 22.0841 41.2554 22.428 42.2011 22.428V21.828ZM40.4241 21.0187C40.003 20.4635 39.7811 19.7423 39.7811 18.832H39.1811C39.1811 19.8417 39.4286 20.6992 39.9461 21.3813L40.4241 21.0187ZM39.7811 18.832C39.7811 17.919 40.0305 17.1982 40.5083 16.6439L40.0539 16.2521C39.4651 16.9351 39.1811 17.8037 39.1811 18.832H39.7811ZM40.51 16.642C40.9795 16.0879 41.6168 15.804 42.4571 15.804V15.204C41.4627 15.204 40.6494 15.5494 40.0523 16.254L40.51 16.642ZM42.4571 15.804C43.0201 15.804 43.5665 15.8405 44.0963 15.9132L44.1779 15.3188C43.6198 15.2422 43.0461 15.204 42.4571 15.204V15.804ZM44.1371 15.916H44.8411V15.316H44.1371V15.916ZM44.5411 15.616V20.976H45.1411V15.616H44.5411ZM44.1371 15.972C43.9805 15.972 43.7249 15.957 43.3635 15.9252L43.3108 16.5228C43.6747 16.555 43.9524 16.572 44.1371 16.572V15.972ZM43.3732 15.9262C43.0153 15.8828 42.714 15.86 42.4731 15.86V16.46C42.6802 16.46 42.955 16.4799 43.301 16.5218L43.3732 15.9262ZM42.4731 15.86C41.6724 15.86 41.02 16.1352 40.5594 16.708L41.0269 17.084C41.3555 16.6754 41.8231 16.46 42.4731 16.46V15.86ZM40.5594 16.708C40.1125 17.2636 39.9011 17.9696 39.9011 18.8H40.5011C40.5011 18.0731 40.6845 17.5097 41.0269 17.084L40.5594 16.708ZM39.9011 18.8C39.9011 19.5931 40.0829 20.2835 40.4635 20.8544L40.9627 20.5216C40.6607 20.0685 40.5011 19.5002 40.5011 18.8H39.9011ZM40.4635 20.8544C40.8642 21.4554 41.457 21.756 42.2011 21.756V21.156C41.6439 21.156 41.2447 20.9446 40.9627 20.5216L40.4635 20.8544ZM42.2011 21.756C42.8228 21.756 43.3579 21.5623 43.7827 21.1625L43.3715 20.7255C43.071 21.0084 42.6888 21.156 42.2011 21.156V21.756ZM43.7796 21.1654C44.2214 20.7614 44.4371 20.2298 44.4371 19.6H43.8371C43.8371 20.0795 43.6795 20.4439 43.3747 20.7226L43.7796 21.1654ZM44.4371 19.6V16.272H43.8371V19.6H44.4371ZM46.6653 15.968L46.4124 15.8065L46.2482 16.0636L46.508 16.2235L46.6653 15.968ZM47.0333 15.392L47.1983 15.1415L46.9443 14.9741L46.7804 15.2305L47.0333 15.392ZM48.0413 16.784L47.7562 16.8774L47.7562 16.8775L48.0413 16.784ZM49.4013 20.928L49.1162 21.0215L49.4012 21.8899L49.6863 21.0216L49.4013 20.928ZM51.1453 15.616V15.316H50.928L50.8602 15.5224L51.1453 15.616ZM51.8493 15.616L52.1345 15.7089L52.2625 15.316H51.8493V15.616ZM49.7693 22V22.3H49.987L50.0545 22.0929L49.7693 22ZM49.0493 22L48.7645 22.0944L48.8326 22.3H49.0493V22ZM47.2893 16.688L47.574 16.5936L47.5692 16.5792L47.563 16.5653L47.2893 16.688ZM46.9181 16.1295L47.2861 15.5535L46.7804 15.2305L46.4124 15.8065L46.9181 16.1295ZM46.8682 15.6425C47.2722 15.9088 47.5711 16.3125 47.7562 16.8774L48.3263 16.6906C48.1061 16.0182 47.733 15.4939 47.1983 15.1415L46.8682 15.6425ZM47.7562 16.8775L49.1162 21.0215L49.6863 20.8345L48.3263 16.6905L47.7562 16.8775ZM49.6863 21.0216L51.4303 15.7096L50.8602 15.5224L49.1162 20.8344L49.6863 21.0216ZM51.1453 15.916H51.8493V15.316H51.1453V15.916ZM51.564 15.5231L49.484 21.9071L50.0545 22.0929L52.1345 15.7089L51.564 15.5231ZM49.7693 21.7H49.0493V22.3H49.7693V21.7ZM49.334 21.9056L47.574 16.5936L47.0045 16.7824L48.7645 22.0944L49.334 21.9056ZM47.563 16.5653C47.4008 16.2034 47.1533 15.9161 46.8225 15.7125L46.508 16.2235C46.7319 16.3613 46.9004 16.5539 47.0155 16.8107L47.563 16.5653ZM58.0181 20.848L58.2734 20.6904L58.1234 20.4475L57.8734 20.5852L58.0181 20.848ZM58.3541 21.392L58.5292 21.6356L58.7564 21.4723L58.6094 21.2344L58.3541 21.392ZM53.8581 16.48L54.0943 16.665L54.0958 16.6631L53.8581 16.48ZM57.5381 16.016L57.3535 16.2525L57.3572 16.2553L57.5381 16.016ZM57.3941 18.976L57.5469 19.2342L57.5485 19.2332L57.3941 18.976ZM53.8741 19.44V19.14H53.5336L53.5765 19.4778L53.8741 19.44ZM53.8261 18.768H53.5261V19.068H53.8261V18.768ZM57.0261 16.464L56.8418 16.701L56.8518 16.7081L57.0261 16.464ZM54.3701 16.928L54.1244 16.756L54.1236 16.757L54.3701 16.928ZM56.0181 21.756C56.6825 21.756 57.3995 21.5312 58.1628 21.1108L57.8734 20.5852C57.1647 20.9755 56.5484 21.156 56.0181 21.156V21.756ZM57.7629 21.0056L58.0989 21.5496L58.6094 21.2344L58.2734 20.6904L57.7629 21.0056ZM58.179 21.1484C57.5495 21.6008 56.8327 21.828 56.0181 21.828V22.428C56.9529 22.428 57.7934 22.1645 58.5292 21.6356L58.179 21.1484ZM56.0181 21.828C55.104 21.828 54.4704 21.571 54.0589 21.1054C53.6413 20.6326 53.4061 19.8929 53.4061 18.832H52.8061C52.8061 19.9684 53.0563 20.8767 53.6093 21.5026C54.1685 22.1356 54.9909 22.428 56.0181 22.428V21.828ZM53.4061 18.832C53.4061 17.9611 53.6401 17.2449 54.0943 16.665L53.622 16.295C53.0735 16.9951 52.8061 17.8469 52.8061 18.832H53.4061ZM54.0958 16.6631C54.5386 16.0884 55.1217 15.804 55.8741 15.804V15.204C54.9412 15.204 54.1803 15.5703 53.6205 16.2969L54.0958 16.6631ZM55.8741 15.804C56.4938 15.804 56.9794 15.9605 57.3535 16.2525L57.7227 15.7795C57.2222 15.3889 56.5984 15.204 55.8741 15.204V15.804ZM57.3572 16.2553C57.7092 16.5214 57.8941 16.9015 57.8941 17.44H58.4941C58.4941 16.7411 58.2418 16.1719 57.7191 15.7767L57.3572 16.2553ZM57.8941 17.44C57.8941 18.0552 57.6694 18.461 57.2398 18.7188L57.5485 19.2332C58.1855 18.851 58.4941 18.2328 58.4941 17.44H57.8941ZM57.2413 18.7178C56.7785 18.9918 56.164 19.14 55.3781 19.14V19.74C56.235 19.74 56.9645 19.5789 57.5469 19.2342L57.2413 18.7178ZM55.3781 19.14H53.8741V19.74H55.3781V19.14ZM53.5765 19.4778C53.6673 20.1928 53.9082 20.7714 54.3326 21.1706C54.76 21.5724 55.3348 21.756 56.0181 21.756V21.156C55.4427 21.156 55.0309 21.0036 54.7436 20.7334C54.4534 20.4606 54.2516 20.0312 54.1717 19.4022L53.5765 19.4778ZM53.8261 19.068H55.3781V18.468H53.8261V19.068ZM55.3781 19.068C56.0988 19.068 56.6906 18.9556 57.1107 18.6894C57.5539 18.4086 57.7741 17.9768 57.7741 17.44H57.1741C57.1741 17.7886 57.045 18.0208 56.7896 18.1826C56.511 18.3591 56.0548 18.468 55.3781 18.468V19.068ZM57.7741 17.44C57.7741 16.9269 57.5937 16.5008 57.2005 16.2199L56.8518 16.7081C57.0559 16.8539 57.1741 17.0785 57.1741 17.44H57.7741ZM57.2103 16.2272C56.8551 15.9509 56.3997 15.828 55.8741 15.828V16.428C56.3085 16.428 56.6211 16.5291 56.8419 16.7008L57.2103 16.2272ZM55.8741 15.828C55.143 15.828 54.5515 16.1457 54.1244 16.756L54.6159 17.1C54.9354 16.6436 55.3466 16.428 55.8741 16.428V15.828ZM54.1236 16.757C53.7224 17.3352 53.5261 18.0097 53.5261 18.768H54.1261C54.1261 18.1183 54.2925 17.5662 54.6166 17.099L54.1236 16.757ZM63.8528 16.08L63.6031 15.9136L63.448 16.1463L63.6693 16.3174L63.8528 16.08ZM64.2368 15.504L64.4005 15.2526L64.1518 15.0907L63.9871 15.3376L64.2368 15.504ZM65.1488 16.528L64.8691 16.6367L64.8742 16.6497L64.8804 16.6622L65.1488 16.528ZM68.0928 20.976L68.2689 21.2189L68.2728 21.216L68.0928 20.976ZM68.7968 19.808L69.0955 19.8358L69.0968 19.8219V19.808H68.7968ZM68.7968 15.6V15.3H68.4968V15.6H68.7968ZM69.4848 15.6H69.7848V15.3H69.4848V15.6ZM68.9568 25.072L68.7384 24.8661L68.7325 24.8727L68.9568 25.072ZM66.1888 25.056L65.9614 25.2518L65.9618 25.2522L66.1888 25.056ZM66.3328 22.096L66.4962 22.3475L67.2128 21.8817L66.3623 21.7975L66.3328 22.096ZM68.4608 24.576L68.2394 24.3731L68.231 24.383L68.4608 24.576ZM68.8128 21.248H69.1128V20.5799L68.6134 21.0238L68.8128 21.248ZM68.6688 21.376L68.4694 21.1517L68.4631 21.1575L68.6688 21.376ZM67.3408 22.192L67.4784 22.4586L67.4813 22.457L67.3408 22.192ZM66.6048 22.752L66.3693 22.5661L66.3639 22.5729L66.359 22.58L66.6048 22.752ZM66.6848 24.576L66.9236 24.3944L66.92 24.3898L66.6848 24.576ZM64.8568 17.024C64.8568 16.8019 64.7598 16.5944 64.6212 16.4087C64.4816 16.2214 64.2826 16.033 64.0362 15.8426L63.6693 16.3174C63.8922 16.4896 64.0453 16.64 64.1403 16.7673C64.2364 16.8963 64.2568 16.9794 64.2568 17.024H64.8568ZM64.1024 16.2464L64.4864 15.6704L63.9871 15.3376L63.6031 15.9136L64.1024 16.2464ZM64.073 15.7554C64.4962 16.0309 64.749 16.3278 64.8691 16.6367L65.4284 16.4193C65.2498 15.9602 64.8946 15.5744 64.4005 15.2526L64.073 15.7554ZM64.8804 16.6622C64.9325 16.7663 64.9608 16.8852 64.9608 17.024H65.5608C65.5608 16.8002 65.5143 16.5883 65.4171 16.3938L64.8804 16.6622ZM64.9608 17.024V19.904H65.5608V17.024H64.9608ZM64.9608 19.904C64.9608 20.4576 65.0901 20.9286 65.4019 21.2612C65.7171 21.5974 66.1694 21.74 66.7008 21.74V21.14C66.2721 21.14 66.0044 21.0266 65.8396 20.8508C65.6714 20.6714 65.5608 20.3744 65.5608 19.904H64.9608ZM66.7008 21.74C67.2687 21.74 67.7938 21.5633 68.2688 21.2189L67.9167 20.7331C67.5384 21.0073 67.1355 21.14 66.7008 21.14V21.74ZM68.2728 21.216C68.7554 20.854 69.0437 20.3924 69.0955 19.8358L68.498 19.7802C68.4645 20.141 68.2834 20.458 67.9128 20.736L68.2728 21.216ZM69.0968 19.808V15.6H68.4968V19.808H69.0968ZM68.7968 15.9H69.4848V15.3H68.7968V15.9ZM69.1848 15.6V23.504H69.7848V15.6H69.1848ZM69.1848 23.504C69.1848 24.1239 69.0233 24.5641 68.7385 24.8662L69.175 25.2778C69.5942 24.8333 69.7848 24.2281 69.7848 23.504H69.1848ZM68.7325 24.8727C68.4607 25.1785 68.0653 25.348 67.5008 25.348V25.948C68.1949 25.948 68.7702 25.7335 69.181 25.2713L68.7325 24.8727ZM67.5008 25.348C67.0523 25.348 66.6986 25.1869 66.4157 24.8598L65.9618 25.2522C66.3616 25.7145 66.8825 25.948 67.5008 25.948V25.348ZM66.4161 24.8602C66.1369 24.536 65.9928 24.1381 65.9928 23.648H65.3928C65.3928 24.2672 65.5793 24.808 65.9614 25.2518L66.4161 24.8602ZM65.9928 23.648C65.9928 22.9393 66.1912 22.5458 66.4962 22.3475L66.1693 21.8445C65.621 22.2008 65.3928 22.842 65.3928 23.648H65.9928ZM66.3623 21.7975C65.814 21.7431 65.4477 21.5771 65.2175 21.3366C64.9898 21.0986 64.8568 20.7473 64.8568 20.24H64.2568C64.2568 20.8527 64.4197 21.3707 64.784 21.7514C65.1458 22.1295 65.6675 22.3315 66.3032 22.3945L66.3623 21.7975ZM64.8568 20.24V17.024H64.2568V20.24H64.8568ZM67.5008 25.276C67.9864 25.276 68.3983 25.1168 68.6905 24.769L68.231 24.383C68.0752 24.5685 67.8471 24.676 67.5008 24.676V25.276ZM68.6819 24.7787C68.9783 24.4554 69.1128 24.0357 69.1128 23.552H68.5128C68.5128 23.9216 68.4126 24.1846 68.2396 24.3733L68.6819 24.7787ZM69.1128 23.552V21.248H68.5128V23.552H69.1128ZM68.6134 21.0238L68.4694 21.1518L68.8681 21.6002L69.0121 21.4722L68.6134 21.0238ZM68.4631 21.1575C68.3166 21.2955 67.9122 21.5494 67.2002 21.927L67.4813 22.457C68.1773 22.0879 68.6583 21.7978 68.8744 21.5945L68.4631 21.1575ZM67.2032 21.9254C66.85 22.1077 66.5648 22.3185 66.3693 22.5661L66.8402 22.9379C66.9647 22.7802 67.1702 22.6176 67.4783 22.4586L67.2032 21.9254ZM66.359 22.58C66.1621 22.8613 66.0808 23.2227 66.0808 23.632H66.6808C66.6808 23.2946 66.7488 23.0694 66.8505 22.924L66.359 22.58ZM66.0808 23.632C66.0808 24.0627 66.199 24.4457 66.4495 24.7622L66.92 24.3898C66.7652 24.1943 66.6808 23.9479 66.6808 23.632H66.0808ZM66.4459 24.7575C66.7066 25.1005 67.0678 25.276 67.5008 25.276V24.676C67.2511 24.676 67.0683 24.5848 66.9236 24.3945L66.4459 24.7575ZM76.5785 16.416L76.3588 16.6203L76.3607 16.6223L76.5785 16.416ZM76.5785 21.216L76.7963 21.4223L76.7981 21.4204L76.5785 21.216ZM71.9545 21.216L72.1723 21.0097L72.1723 21.0097L71.9545 21.216ZM71.9545 16.432L71.7368 16.2256L71.7349 16.2276L71.9545 16.432ZM76.0665 16.864L75.8445 17.0658L75.847 17.0685L76.0665 16.864ZM72.4665 16.896L72.6883 17.0981L72.6905 17.0956L72.4665 16.896ZM72.4665 20.736L72.2425 20.9356L72.2447 20.938L72.4665 20.736ZM76.0665 20.72L75.8425 20.5204L75.8401 20.5231L76.0665 20.72ZM74.2745 15.804C75.1772 15.804 75.8599 16.0838 76.3588 16.6203L76.7982 16.2117C76.1664 15.5322 75.3131 15.204 74.2745 15.204V15.804ZM76.3607 16.6223C76.875 17.1651 77.1425 17.8813 77.1425 18.8H77.7425C77.7425 17.756 77.434 16.8829 76.7963 16.2097L76.3607 16.6223ZM77.1425 18.8C77.1425 19.7302 76.8744 20.4579 76.3589 21.0116L76.7981 21.4204C77.4346 20.7368 77.7425 19.8538 77.7425 18.8H77.1425ZM76.3607 21.0097C75.8498 21.5489 75.1653 21.828 74.2745 21.828V22.428C75.3037 22.428 76.1552 22.0991 76.7963 21.4223L76.3607 21.0097ZM74.2745 21.828C73.3719 21.828 72.6825 21.5482 72.1723 21.0097L71.7367 21.4223C72.3785 22.0998 73.2357 22.428 74.2745 22.428V21.828ZM72.1723 21.0097C71.658 20.4669 71.3905 19.7507 71.3905 18.832H70.7905C70.7905 19.876 71.099 20.7491 71.7367 21.4223L72.1723 21.0097ZM71.3905 18.832C71.3905 17.9135 71.658 17.1907 72.1741 16.6364L71.7349 16.2276C71.099 16.9106 70.7905 17.7879 70.7905 18.832H71.3905ZM72.1722 16.6384C72.6948 16.0873 73.3854 15.804 74.2745 15.804V15.204C73.2436 15.204 72.3875 15.5394 71.7368 16.2256L72.1722 16.6384ZM76.2885 16.6622C75.7932 16.1173 75.1077 15.86 74.2745 15.86V16.46C74.9773 16.46 75.4865 16.672 75.8445 17.0658L76.2885 16.6622ZM74.2745 15.86C73.4368 15.86 72.7466 16.1309 72.2425 16.6964L72.6905 17.0956C73.0611 16.6798 73.5762 16.46 74.2745 16.46V15.86ZM72.2447 16.694C71.7467 17.2406 71.5105 17.9529 71.5105 18.8H72.1105C72.1105 18.0685 72.3116 17.5114 72.6883 17.098L72.2447 16.694ZM71.5105 18.8C71.5105 19.6569 71.7461 20.3787 72.2425 20.9356L72.6905 20.5364C72.3122 20.112 72.1105 19.5431 72.1105 18.8H71.5105ZM72.2447 20.938C72.7493 21.4919 73.4389 21.756 74.2745 21.756V21.156C73.5741 21.156 73.0583 20.9401 72.6883 20.534L72.2447 20.938ZM74.2745 21.756C75.112 21.756 75.7988 21.4851 76.2929 20.9169L75.8401 20.5231C75.4809 20.9363 74.973 21.156 74.2745 21.156V21.756ZM76.2905 20.9196C76.7875 20.3619 77.0225 19.6344 77.0225 18.768H76.4225C76.4225 19.523 76.2202 20.0967 75.8425 20.5204L76.2905 20.9196ZM77.0225 18.768C77.0225 17.9117 76.787 17.1972 76.286 16.6595L75.847 17.0685C76.2206 17.4695 76.4225 18.0243 76.4225 18.768H77.0225ZM78.6184 16.08L78.3688 15.9136L78.2136 16.1463L78.4349 16.3174L78.6184 16.08ZM79.0024 15.504L79.1674 15.2534L78.9182 15.0894L78.7528 15.3376L79.0024 15.504ZM79.9304 16.528L80.2089 16.4166L80.2061 16.4096L80.203 16.4027L79.9304 16.528ZM82.6344 21.12L82.46 20.8759L82.46 20.8759L82.6344 21.12ZM83.5624 20.16L83.8024 20.34L83.8624 20.26V20.16H83.5624ZM83.5624 15.6V15.3H83.2624V15.6H83.5624ZM84.2504 15.6H84.5504V15.3H84.2504V15.6ZM84.3944 21.312L84.1822 21.5241L84.1885 21.5304L84.1951 21.5362L84.3944 21.312ZM85.0664 21.248L85.2343 20.9994L84.9977 20.8395L84.8264 21.068L85.0664 21.248ZM85.6584 21.648L85.8846 21.845L86.1073 21.5893L85.8263 21.3994L85.6584 21.648ZM83.8984 21.824L83.6811 22.031L83.6862 22.0361L83.8984 21.824ZM83.5464 21.008L83.8457 20.988L83.7911 20.1688L83.3047 20.8303L83.5464 21.008ZM79.3224 20.24H79.0224V20.249L79.0229 20.2581L79.3224 20.24ZM79.6224 17.024C79.6224 16.8019 79.5254 16.5944 79.3869 16.4087C79.2472 16.2214 79.0482 16.033 78.8018 15.8426L78.4349 16.3174C78.6578 16.4896 78.8109 16.64 78.9059 16.7673C79.002 16.8963 79.0224 16.9794 79.0224 17.024H79.6224ZM78.868 16.2464L79.252 15.6704L78.7528 15.3376L78.3688 15.9136L78.868 16.2464ZM78.8374 15.7546C79.2375 16.0181 79.5043 16.3192 79.6578 16.6532L80.203 16.4027C79.9938 15.9475 79.6419 15.5659 79.1674 15.2534L78.8374 15.7546ZM79.6518 16.6394C79.7018 16.7643 79.7264 16.8919 79.7264 17.024H80.3264C80.3264 16.8148 80.287 16.6117 80.2089 16.4166L79.6518 16.6394ZM79.7264 17.024V19.904H80.3264V17.024H79.7264ZM79.7264 19.904C79.7264 20.4576 79.8557 20.9286 80.1675 21.2612C80.4827 21.5974 80.935 21.74 81.4664 21.74V21.14C81.0378 21.14 80.7701 21.0266 80.6052 20.8508C80.437 20.6714 80.3264 20.3744 80.3264 19.904H79.7264ZM81.4664 21.74C81.9898 21.74 82.4456 21.6235 82.8087 21.3641L82.46 20.8759C82.2258 21.0431 81.903 21.14 81.4664 21.14V21.74ZM82.8087 21.3641C83.141 21.1268 83.4715 20.7812 83.8024 20.34L83.3224 19.98C83.0133 20.3922 82.7251 20.6865 82.46 20.8759L82.8087 21.3641ZM83.8624 20.16V15.6H83.2624V20.16H83.8624ZM83.5624 15.9H84.2504V15.3H83.5624V15.9ZM83.9504 15.6V20.992H84.5504V15.6H83.9504ZM83.9504 20.992C83.9504 21.2015 84.0395 21.3814 84.1822 21.5241L84.6065 21.0999C84.5572 21.0506 84.5504 21.0172 84.5504 20.992H83.9504ZM84.1951 21.5362C84.3342 21.6599 84.5039 21.74 84.6984 21.74V21.14C84.6795 21.14 84.6465 21.1348 84.5937 21.0878L84.1951 21.5362ZM84.6984 21.74C84.9497 21.74 85.1584 21.6253 85.3064 21.428L84.8264 21.068C84.7823 21.1267 84.7457 21.14 84.6984 21.14V21.74ZM84.8984 21.4966L85.4904 21.8966L85.8263 21.3994L85.2343 20.9994L84.8984 21.4966ZM85.4322 21.451C85.186 21.7336 84.943 21.844 84.6984 21.844V22.444C85.1578 22.444 85.5548 22.2237 85.8846 21.845L85.4322 21.451ZM84.6984 21.844C84.4526 21.844 84.2639 21.7653 84.1105 21.6119L83.6862 22.0361C83.9595 22.3094 84.3042 22.444 84.6984 22.444V21.844ZM84.1156 21.6171C83.9526 21.4459 83.8626 21.2408 83.8457 20.988L83.247 21.028C83.2729 21.4152 83.4175 21.7541 83.6811 22.0309L84.1156 21.6171ZM83.3047 20.8303C82.8242 21.4837 82.2183 21.796 81.4664 21.796V22.396C82.4211 22.396 83.2019 21.983 83.7881 21.1857L83.3047 20.8303ZM81.4664 21.796C80.8304 21.796 80.3941 21.6505 80.1107 21.4052C79.8318 21.1637 79.6559 20.7862 79.6218 20.2219L79.0229 20.2581C79.0635 20.9312 79.2823 21.4816 79.718 21.8588C80.1494 22.2322 80.7477 22.396 81.4664 22.396V21.796ZM79.6224 20.24V17.024H79.0224V20.24H79.6224ZM95.2215 16.528L94.9999 16.7303L95.0047 16.7354L95.2215 16.528ZM93.2055 16.368L93.0713 16.0997L93.0713 16.0997L93.2055 16.368ZM92.5655 16.816L92.3462 16.6113L92.3457 16.6119L92.5655 16.816ZM92.0375 17.456L91.7997 17.2731L91.7375 17.354V17.456H92.0375ZM92.0375 22V22.3H92.3375V22H92.0375ZM91.3335 22H91.0335V22.3H91.3335V22ZM90.8215 15.952L90.6134 15.7359L90.3932 15.948L90.6094 16.1641L90.8215 15.952ZM91.2535 15.536L91.4216 15.2875L91.2204 15.1514L91.0454 15.3199L91.2535 15.536ZM91.9575 16.72L91.6631 16.7777L91.8009 17.4802L92.2051 16.8894L91.9575 16.72ZM96.4055 21.312L96.1813 21.5113L96.1871 21.5179L96.1934 21.5241L96.4055 21.312ZM97.0935 21.264L97.2599 21.0144L97.0238 20.857L96.8535 21.084L97.0935 21.264ZM97.6695 21.648L97.9203 21.8126L98.0837 21.5636L97.8359 21.3984L97.6695 21.648ZM95.9095 21.824L96.1216 21.6119L96.1216 21.6119L95.9095 21.824ZM95.8735 17.696C95.8735 17.1279 95.7499 16.6464 95.4383 16.3206L95.0047 16.7354C95.1625 16.9003 95.2735 17.1974 95.2735 17.696H95.8735ZM95.443 16.3257C95.1376 15.9911 94.6686 15.86 94.1175 15.86V16.46C94.5904 16.46 94.8574 16.5742 95 16.7303L95.443 16.3257ZM94.1175 15.86C93.7434 15.86 93.3931 15.9388 93.0713 16.0997L93.3397 16.6363C93.5726 16.5199 93.8302 16.46 94.1175 16.46V15.86ZM93.0713 16.0997C92.7743 16.2482 92.5277 16.4168 92.3462 16.6113L92.7848 17.0207C92.9019 16.8952 93.082 16.7651 93.3397 16.6363L93.0713 16.0997ZM92.3457 16.6119C92.1978 16.7711 92.0153 16.9928 91.7997 17.2731L92.2753 17.6389C92.4864 17.3645 92.6559 17.1596 92.7853 17.0201L92.3457 16.6119ZM91.7375 17.456V22H92.3375V17.456H91.7375ZM92.0375 21.7H91.3335V22.3H92.0375V21.7ZM91.6335 22V17.488H91.0335V22H91.6335ZM91.6335 17.488C91.6335 16.7591 91.4511 16.1573 91.0336 15.7399L90.6094 16.1641C90.8746 16.4294 91.0335 16.8516 91.0335 17.488H91.6335ZM91.0296 16.1681L91.4616 15.7521L91.0454 15.3199L90.6134 15.7359L91.0296 16.1681ZM91.0854 15.7845C91.3661 15.9744 91.5674 16.2898 91.6631 16.7777L92.2519 16.6623C92.1342 16.0622 91.8662 15.5883 91.4216 15.2875L91.0854 15.7845ZM92.2051 16.8894C92.711 16.15 93.3432 15.804 94.1175 15.804V15.204C93.1211 15.204 92.3133 15.6687 91.7099 16.5506L92.2051 16.8894ZM94.1175 15.804C94.7951 15.804 95.2476 15.9649 95.5311 16.2337C95.8116 16.4997 95.9775 16.9198 95.9775 17.552H96.5775C96.5775 16.8189 96.3834 16.215 95.9439 15.7983C95.5074 15.3844 94.8799 15.204 94.1175 15.204V15.804ZM95.9775 17.552V21.008H96.5775V17.552H95.9775ZM95.9775 21.008C95.9775 21.2025 96.0576 21.3722 96.1813 21.5113L96.6297 21.1127C96.5827 21.0598 96.5775 21.0268 96.5775 21.008H95.9775ZM96.1934 21.5241C96.3361 21.6668 96.516 21.756 96.7255 21.756V21.156C96.7003 21.156 96.6669 21.1492 96.6176 21.0999L96.1934 21.5241ZM96.7255 21.756C96.9768 21.756 97.1855 21.6413 97.3335 21.444L96.8535 21.084C96.8095 21.1427 96.7728 21.156 96.7255 21.156V21.756ZM96.9271 21.5136L97.5031 21.8976L97.8359 21.3984L97.2599 21.0144L96.9271 21.5136ZM97.4187 21.4834C97.2497 21.741 97.0289 21.86 96.7255 21.86V22.46C97.2328 22.46 97.6413 22.2377 97.9203 21.8126L97.4187 21.4834ZM96.7255 21.86C96.4842 21.86 96.2887 21.779 96.1216 21.6119L95.6974 22.0361C95.9783 22.317 96.3268 22.46 96.7255 22.46V21.86ZM96.1216 21.6119C95.9545 21.4448 95.8735 21.2493 95.8735 21.008H95.2735C95.2735 21.4067 95.4165 21.7552 95.6974 22.0361L96.1216 21.6119ZM95.8735 21.008V17.696H95.2735V21.008H95.8735ZM103.674 20.848L103.93 20.6904L103.78 20.4475L103.53 20.5852L103.674 20.848ZM104.01 21.392L104.185 21.6356L104.413 21.4723L104.266 21.2344L104.01 21.392ZM99.5144 16.48L99.7506 16.665L99.752 16.6631L99.5144 16.48ZM103.194 16.016L103.01 16.2525L103.013 16.2553L103.194 16.016ZM103.05 18.976L103.203 19.2342L103.205 19.2332L103.05 18.976ZM99.5304 19.44V19.14H99.1899L99.2328 19.4778L99.5304 19.44ZM99.4824 18.768H99.1824V19.068H99.4824V18.768ZM102.682 16.464L102.498 16.701L102.508 16.7081L102.682 16.464ZM100.026 16.928L99.7806 16.756L99.7799 16.757L100.026 16.928ZM101.674 21.756C102.339 21.756 103.056 21.5312 103.819 21.1108L103.53 20.5852C102.821 20.9755 102.205 21.156 101.674 21.156V21.756ZM103.419 21.0056L103.755 21.5496L104.266 21.2344L103.93 20.6904L103.419 21.0056ZM103.835 21.1484C103.206 21.6008 102.489 21.828 101.674 21.828V22.428C102.609 22.428 103.45 22.1645 104.185 21.6356L103.835 21.1484ZM101.674 21.828C100.76 21.828 100.127 21.571 99.7152 21.1054C99.2975 20.6326 99.0624 19.8929 99.0624 18.832H98.4624C98.4624 19.9684 98.7126 20.8767 99.2656 21.5026C99.8248 22.1356 100.647 22.428 101.674 22.428V21.828ZM99.0624 18.832C99.0624 17.9611 99.2963 17.2449 99.7505 16.665L99.2782 16.295C98.7298 16.9951 98.4624 17.8469 98.4624 18.832H99.0624ZM99.752 16.6631C100.195 16.0884 100.778 15.804 101.53 15.804V15.204C100.597 15.204 99.8366 15.5703 99.2767 16.2969L99.752 16.6631ZM101.53 15.804C102.15 15.804 102.636 15.9605 103.01 16.2525L103.379 15.7795C102.878 15.3889 102.255 15.204 101.53 15.204V15.804ZM103.013 16.2553C103.365 16.5214 103.55 16.9015 103.55 17.44H104.15C104.15 16.7411 103.898 16.1719 103.375 15.7767L103.013 16.2553ZM103.55 17.44C103.55 18.0552 103.326 18.461 102.896 18.7188L103.205 19.2332C103.842 18.851 104.15 18.2328 104.15 17.44H103.55ZM102.898 18.7178C102.435 18.9918 101.82 19.14 101.034 19.14V19.74C101.891 19.74 102.621 19.5789 103.203 19.2342L102.898 18.7178ZM101.034 19.14H99.5304V19.74H101.034V19.14ZM99.2328 19.4778C99.3236 20.1928 99.5644 20.7714 99.9889 21.1706C100.416 21.5724 100.991 21.756 101.674 21.756V21.156C101.099 21.156 100.687 21.0036 100.4 20.7334C100.11 20.4606 99.9079 20.0312 99.828 19.4022L99.2328 19.4778ZM99.4824 19.068H101.034V18.468H99.4824V19.068ZM101.034 19.068C101.755 19.068 102.347 18.9556 102.767 18.6894C103.21 18.4086 103.43 17.9768 103.43 17.44H102.83C102.83 17.7886 102.701 18.0208 102.446 18.1826C102.167 18.3591 101.711 18.468 101.034 18.468V19.068ZM103.43 17.44C103.43 16.9269 103.25 16.5008 102.857 16.2199L102.508 16.7081C102.712 16.8539 102.83 17.0785 102.83 17.44H103.43ZM102.867 16.2272C102.511 15.9509 102.056 15.828 101.53 15.828V16.428C101.965 16.428 102.277 16.5291 102.498 16.7008L102.867 16.2272ZM101.53 15.828C100.799 15.828 100.208 16.1457 99.7806 16.756L100.272 17.1C100.592 16.6436 101.003 16.428 101.53 16.428V15.828ZM99.7799 16.757C99.3787 17.3352 99.1824 18.0097 99.1824 18.768H99.7824C99.7824 18.1183 99.9487 17.5662 100.273 17.099L99.7799 16.757ZM105.04 15.968L104.787 15.8065L104.623 16.0636L104.883 16.2235L105.04 15.968ZM105.408 15.392L105.573 15.1415L105.319 14.9741L105.155 15.2305L105.408 15.392ZM106.416 16.784L106.131 16.8774L106.131 16.8775L106.416 16.784ZM107.776 20.928L107.491 21.0215L107.776 21.8899L108.061 21.0216L107.776 20.928ZM109.52 15.616V15.316H109.303L109.235 15.5224L109.52 15.616ZM110.224 15.616L110.509 15.7089L110.638 15.316H110.224V15.616ZM108.144 22V22.3H108.362L108.429 22.0929L108.144 22ZM107.424 22L107.139 22.0944L107.208 22.3H107.424V22ZM105.664 16.688L105.949 16.5936L105.944 16.5792L105.938 16.5653L105.664 16.688ZM105.293 16.1295L105.661 15.5535L105.155 15.2305L104.787 15.8065L105.293 16.1295ZM105.243 15.6425C105.647 15.9088 105.946 16.3125 106.131 16.8774L106.701 16.6906C106.481 16.0182 106.108 15.4939 105.573 15.1415L105.243 15.6425ZM106.131 16.8775L107.491 21.0215L108.061 20.8345L106.701 16.6905L106.131 16.8775ZM108.061 21.0216L109.805 15.7096L109.235 15.5224L107.491 20.8344L108.061 21.0216ZM109.52 15.916H110.224V15.316H109.52V15.916ZM109.939 15.5231L107.859 21.9071L108.429 22.0929L110.509 15.7089L109.939 15.5231ZM108.144 21.7H107.424V22.3H108.144V21.7ZM107.709 21.9056L105.949 16.5936L105.379 16.7824L107.139 22.0944L107.709 21.9056ZM105.938 16.5653C105.776 16.2034 105.528 15.9161 105.197 15.7125L104.883 16.2235C105.107 16.3613 105.275 16.5539 105.39 16.8107L105.938 16.5653ZM116.393 20.848L116.648 20.6904L116.498 20.4475L116.248 20.5852L116.393 20.848ZM116.729 21.392L116.904 21.6356L117.131 21.4723L116.984 21.2344L116.729 21.392ZM112.233 16.48L112.469 16.665L112.471 16.6631L112.233 16.48ZM115.913 16.016L115.729 16.2525L115.732 16.2553L115.913 16.016ZM115.769 18.976L115.922 19.2342L115.923 19.2332L115.769 18.976ZM112.249 19.44V19.14H111.909L111.952 19.4778L112.249 19.44ZM112.201 18.768H111.901V19.068H112.201V18.768ZM115.401 16.464L115.217 16.701L115.227 16.7081L115.401 16.464ZM112.745 16.928L112.499 16.756L112.499 16.757L112.745 16.928ZM114.393 21.756C115.057 21.756 115.775 21.5312 116.538 21.1108L116.248 20.5852C115.54 20.9755 114.923 21.156 114.393 21.156V21.756ZM116.138 21.0056L116.474 21.5496L116.984 21.2344L116.648 20.6904L116.138 21.0056ZM116.554 21.1484C115.925 21.6008 115.208 21.828 114.393 21.828V22.428C115.328 22.428 116.168 22.1645 116.904 21.6356L116.554 21.1484ZM114.393 21.828C113.479 21.828 112.845 21.571 112.434 21.1054C112.016 20.6326 111.781 19.8929 111.781 18.832H111.181C111.181 19.9684 111.431 20.8767 111.984 21.5026C112.544 22.1356 113.366 22.428 114.393 22.428V21.828ZM111.781 18.832C111.781 17.9611 112.015 17.2449 112.469 16.665L111.997 16.295C111.449 16.9951 111.181 17.8469 111.181 18.832H111.781ZM112.471 16.6631C112.914 16.0884 113.497 15.804 114.249 15.804V15.204C113.316 15.204 112.555 15.5703 111.995 16.2969L112.471 16.6631ZM114.249 15.804C114.869 15.804 115.354 15.9605 115.729 16.2525L116.098 15.7795C115.597 15.3889 114.973 15.204 114.249 15.204V15.804ZM115.732 16.2553C116.084 16.5214 116.269 16.9015 116.269 17.44H116.869C116.869 16.7411 116.617 16.1719 116.094 15.7767L115.732 16.2553ZM116.269 17.44C116.269 18.0552 116.044 18.461 115.615 18.7188L115.923 19.2332C116.561 18.851 116.869 18.2328 116.869 17.44H116.269ZM115.616 18.7178C115.153 18.9918 114.539 19.14 113.753 19.14V19.74C114.61 19.74 115.339 19.5789 115.922 19.2342L115.616 18.7178ZM113.753 19.14H112.249V19.74H113.753V19.14ZM111.952 19.4778C112.042 20.1928 112.283 20.7714 112.708 21.1706C113.135 21.5724 113.71 21.756 114.393 21.756V21.156C113.818 21.156 113.406 21.0036 113.119 20.7334C112.828 20.4606 112.627 20.0312 112.547 19.4022L111.952 19.4778ZM112.201 19.068H113.753V18.468H112.201V19.068ZM113.753 19.068C114.474 19.068 115.066 18.9556 115.486 18.6894C115.929 18.4086 116.149 17.9768 116.149 17.44H115.549C115.549 17.7886 115.42 18.0208 115.165 18.1826C114.886 18.3591 114.43 18.468 113.753 18.468V19.068ZM116.149 17.44C116.149 16.9269 115.969 16.5008 115.575 16.2199L115.227 16.7081C115.431 16.8539 115.549 17.0785 115.549 17.44H116.149ZM115.585 16.2272C115.23 15.9509 114.775 15.828 114.249 15.828V16.428C114.684 16.428 114.996 16.5291 115.217 16.7008L115.585 16.2272ZM114.249 15.828C113.518 15.828 112.927 16.1457 112.499 16.756L112.991 17.1C113.31 16.6436 113.722 16.428 114.249 16.428V15.828ZM112.499 16.757C112.097 17.3352 111.901 18.0097 111.901 18.768H112.501C112.501 18.1183 112.667 17.5662 112.992 17.099L112.499 16.757ZM121.772 16.272L121.715 16.5665L122.072 16.6356V16.272H121.772ZM119.228 17.424L118.967 17.2766L118.928 17.3452V17.424H119.228ZM119.228 22V22.3H119.528V22H119.228ZM118.524 22H118.224V22.3H118.524V22ZM118.012 15.952L117.804 15.7359L117.584 15.948L117.8 16.1641L118.012 15.952ZM118.444 15.536L118.623 15.2951L118.419 15.1438L118.236 15.3199L118.444 15.536ZM119.148 16.656L118.859 16.736L119.051 17.432L119.409 16.8045L119.148 16.656ZM121.772 15.6H122.072V15.3541L121.831 15.3058L121.772 15.6ZM121.829 15.9775C121.487 15.9113 121.184 15.876 120.924 15.876V16.476C121.133 16.476 121.396 16.5047 121.715 16.5665L121.829 15.9775ZM120.924 15.876C120.11 15.876 119.463 16.3968 118.967 17.2766L119.489 17.5714C119.932 16.7872 120.415 16.476 120.924 16.476V15.876ZM118.928 17.424V22H119.528V17.424H118.928ZM119.228 21.7H118.524V22.3H119.228V21.7ZM118.824 22V17.488H118.224V22H118.824ZM118.824 17.488C118.824 16.7591 118.642 16.1573 118.224 15.7399L117.8 16.1641C118.065 16.4294 118.224 16.8516 118.224 17.488H118.824ZM118.22 16.1681L118.652 15.7521L118.236 15.3199L117.804 15.7359L118.22 16.1681ZM118.265 15.7769C118.529 15.9729 118.733 16.2818 118.859 16.736L119.437 16.576C119.285 16.0275 119.02 15.5897 118.623 15.2951L118.265 15.7769ZM119.409 16.8045C119.799 16.1198 120.329 15.804 121.02 15.804V15.204C120.09 15.204 119.372 15.6562 118.887 16.5075L119.409 16.8045ZM121.02 15.804C121.172 15.804 121.4 15.8315 121.713 15.8942L121.831 15.3058C121.504 15.2405 121.231 15.204 121.02 15.204V15.804ZM121.472 15.6V16.272H122.072V15.6H121.472ZM127.454 21.872H127.154V22.1015L127.375 22.1615L127.454 21.872ZM127.454 12.704V12.404H127.154V12.704H127.454ZM128.158 12.704H128.458V12.404H128.158V12.704ZM128.158 16.464H127.858V17.4157L128.403 16.636L128.158 16.464ZM132.094 16.432L131.855 16.6133L131.858 16.6179L132.094 16.432ZM132.014 21.2L132.241 21.3959L132.242 21.394L132.014 21.2ZM128.158 21.344H127.858V21.6104L128.122 21.6419L128.158 21.344ZM128.83 21.424L128.794 21.7219L128.796 21.7222L128.83 21.424ZM131.486 20.736L131.717 20.9265L131.719 20.924L131.486 20.736ZM131.566 16.928L131.316 17.0944L131.316 17.0944L131.566 16.928ZM128.766 16.624L128.571 16.3957L128.568 16.3987L128.766 16.624ZM128.158 17.808L127.859 17.7749L127.858 17.7914V17.808H128.158ZM129.822 21.828C128.888 21.828 128.127 21.7438 127.532 21.5825L127.375 22.1615C128.039 22.3415 128.857 22.428 129.822 22.428V21.828ZM127.754 21.872V12.704H127.154V21.872H127.754ZM127.454 13.004H128.158V12.404H127.454V13.004ZM127.858 12.704V16.464H128.458V12.704H127.858ZM128.403 16.636C128.791 16.0822 129.336 15.804 130.078 15.804V15.204C129.155 15.204 128.42 15.5658 127.912 16.292L128.403 16.636ZM130.078 15.804C130.872 15.804 131.45 16.0796 131.855 16.6133L132.333 16.2507C131.799 15.5471 131.033 15.204 130.078 15.204V15.804ZM131.858 16.6179C132.287 17.1613 132.514 17.8749 132.514 18.784H133.114C133.114 17.7731 132.86 16.9187 132.329 16.2461L131.858 16.6179ZM132.514 18.784C132.514 19.7084 132.264 20.4408 131.785 21.006L132.242 21.394C132.83 20.7006 133.114 19.8223 133.114 18.784H132.514ZM131.786 21.0041C131.318 21.5473 130.676 21.828 129.822 21.828V22.428C130.824 22.428 131.642 22.0901 132.241 21.3959L131.786 21.0041ZM128.122 21.6419L128.794 21.7219L128.865 21.1261L128.193 21.0461L128.122 21.6419ZM128.796 21.7222C129.007 21.7455 129.347 21.756 129.806 21.756V21.156C129.347 21.156 129.037 21.1452 128.863 21.1258L128.796 21.7222ZM129.806 21.756C130.604 21.756 131.256 21.4878 131.717 20.9265L131.254 20.5455C130.926 20.9442 130.458 21.156 129.806 21.156V21.756ZM131.719 20.924C132.166 20.3684 132.378 19.6624 132.378 18.832H131.778C131.778 19.5589 131.594 20.1223 131.252 20.548L131.719 20.924ZM132.378 18.832C132.378 18.0292 132.196 17.3332 131.815 16.7616L131.316 17.0944C131.618 17.5468 131.778 18.1201 131.778 18.832H132.378ZM131.815 16.7616C131.415 16.1606 130.822 15.86 130.078 15.86V16.46C130.635 16.46 131.034 16.6714 131.316 17.0944L131.815 16.7616ZM130.078 15.86C129.5 15.86 128.992 16.0365 128.571 16.3957L128.96 16.8522C129.264 16.5928 129.631 16.46 130.078 16.46V15.86ZM128.568 16.3987C128.158 16.759 127.921 17.2231 127.859 17.7749L128.456 17.8411C128.501 17.4329 128.67 17.1077 128.964 16.8493L128.568 16.3987ZM127.858 17.808V21.344H128.458V17.808H127.858ZM139.128 20.848L139.383 20.6904L139.233 20.4475L138.983 20.5852L139.128 20.848ZM139.464 21.392L139.639 21.6356L139.866 21.4723L139.719 21.2344L139.464 21.392ZM134.968 16.48L135.204 16.665L135.205 16.6631L134.968 16.48ZM138.648 16.016L138.463 16.2525L138.467 16.2553L138.648 16.016ZM138.504 18.976L138.656 19.2342L138.658 19.2332L138.504 18.976ZM134.984 19.44V19.14H134.643L134.686 19.4778L134.984 19.44ZM134.936 18.768H134.636V19.068H134.936V18.768ZM138.136 16.464L137.951 16.701L137.961 16.7081L138.136 16.464ZM135.48 16.928L135.234 16.756L135.233 16.757L135.48 16.928ZM137.128 21.756C137.792 21.756 138.509 21.5312 139.272 21.1108L138.983 20.5852C138.274 20.9755 137.658 21.156 137.128 21.156V21.756ZM138.872 21.0056L139.208 21.5496L139.719 21.2344L139.383 20.6904L138.872 21.0056ZM139.288 21.1484C138.659 21.6008 137.942 21.828 137.128 21.828V22.428C138.062 22.428 138.903 22.1645 139.639 21.6356L139.288 21.1484ZM137.128 21.828C136.213 21.828 135.58 21.571 135.168 21.1054C134.751 20.6326 134.516 19.8929 134.516 18.832H133.915C133.915 19.9684 134.166 20.8767 134.719 21.5026C135.278 22.1356 136.1 22.428 137.128 22.428V21.828ZM134.516 18.832C134.516 17.9611 134.749 17.2449 135.204 16.665L134.731 16.295C134.183 16.9951 133.915 17.8469 133.915 18.832H134.516ZM135.205 16.6631C135.648 16.0884 136.231 15.804 136.984 15.804V15.204C136.051 15.204 135.29 15.5703 134.73 16.2969L135.205 16.6631ZM136.984 15.804C137.603 15.804 138.089 15.9605 138.463 16.2525L138.832 15.7795C138.332 15.3889 137.708 15.204 136.984 15.204V15.804ZM138.467 16.2553C138.819 16.5214 139.004 16.9015 139.004 17.44H139.604C139.604 16.7411 139.351 16.1719 138.828 15.7767L138.467 16.2553ZM139.004 17.44C139.004 18.0552 138.779 18.461 138.349 18.7188L138.658 19.2332C139.295 18.851 139.604 18.2328 139.604 17.44H139.004ZM138.351 18.7178C137.888 18.9918 137.273 19.14 136.488 19.14V19.74C137.344 19.74 138.074 19.5789 138.656 19.2342L138.351 18.7178ZM136.488 19.14H134.984V19.74H136.488V19.14ZM134.686 19.4778C134.777 20.1928 135.018 20.7714 135.442 21.1706C135.869 21.5724 136.444 21.756 137.128 21.756V21.156C136.552 21.156 136.14 21.0036 135.853 20.7334C135.563 20.4606 135.361 20.0312 135.281 19.4022L134.686 19.4778ZM134.936 19.068H136.488V18.468H134.936V19.068ZM136.488 19.068C137.208 19.068 137.8 18.9556 138.22 18.6894C138.663 18.4086 138.884 17.9768 138.884 17.44H138.284C138.284 17.7886 138.154 18.0208 137.899 18.1826C137.62 18.3591 137.164 18.468 136.488 18.468V19.068ZM138.884 17.44C138.884 16.9269 138.703 16.5008 138.31 16.2199L137.961 16.7081C138.165 16.8539 138.284 17.0785 138.284 17.44H138.884ZM138.32 16.2272C137.964 15.9509 137.509 15.828 136.984 15.828V16.428C137.418 16.428 137.731 16.5291 137.951 16.7008L138.32 16.2272ZM136.984 15.828C136.252 15.828 135.661 16.1457 135.234 16.756L135.725 17.1C136.045 16.6436 136.456 16.428 136.984 16.428V15.828ZM135.233 16.757C134.832 17.3352 134.636 18.0097 134.636 18.768H135.236C135.236 18.1183 135.402 17.5662 135.726 17.099L135.233 16.757ZM145.799 20.848L146.055 20.6904L145.905 20.4475L145.655 20.5852L145.799 20.848ZM146.135 21.392L146.31 21.6356L146.538 21.4723L146.391 21.2344L146.135 21.392ZM141.639 16.48L141.876 16.665L141.877 16.6631L141.639 16.48ZM145.319 16.016L145.135 16.2525L145.138 16.2553L145.319 16.016ZM145.175 18.976L145.328 19.2342L145.33 19.2332L145.175 18.976ZM141.655 19.44V19.14H141.315L141.358 19.4778L141.655 19.44ZM141.607 18.768H141.307V19.068H141.607V18.768ZM144.807 16.464L144.623 16.701L144.633 16.7081L144.807 16.464ZM142.151 16.928L141.906 16.756L141.905 16.757L142.151 16.928ZM143.799 21.756C144.464 21.756 145.181 21.5312 145.944 21.1108L145.655 20.5852C144.946 20.9755 144.33 21.156 143.799 21.156V21.756ZM145.544 21.0056L145.88 21.5496L146.391 21.2344L146.055 20.6904L145.544 21.0056ZM145.96 21.1484C145.331 21.6008 144.614 21.828 143.799 21.828V22.428C144.734 22.428 145.575 22.1645 146.31 21.6356L145.96 21.1484ZM143.799 21.828C142.885 21.828 142.252 21.571 141.84 21.1054C141.423 20.6326 141.187 19.8929 141.187 18.832H140.587C140.587 19.9684 140.838 20.8767 141.391 21.5026C141.95 22.1356 142.772 22.428 143.799 22.428V21.828ZM141.187 18.832C141.187 17.9611 141.421 17.2449 141.876 16.665L141.403 16.295C140.855 16.9951 140.587 17.8469 140.587 18.832H141.187ZM141.877 16.6631C142.32 16.0884 142.903 15.804 143.655 15.804V15.204C142.722 15.204 141.962 15.5703 141.402 16.2969L141.877 16.6631ZM143.655 15.804C144.275 15.804 144.761 15.9605 145.135 16.2525L145.504 15.7795C145.003 15.3889 144.38 15.204 143.655 15.204V15.804ZM145.138 16.2553C145.49 16.5214 145.675 16.9015 145.675 17.44H146.275C146.275 16.7411 146.023 16.1719 145.5 15.7767L145.138 16.2553ZM145.675 17.44C145.675 18.0552 145.451 18.461 145.021 18.7188L145.33 19.2332C145.967 18.851 146.275 18.2328 146.275 17.44H145.675ZM145.023 18.7178C144.56 18.9918 143.945 19.14 143.159 19.14V19.74C144.016 19.74 144.746 19.5789 145.328 19.2342L145.023 18.7178ZM143.159 19.14H141.655V19.74H143.159V19.14ZM141.358 19.4778C141.449 20.1928 141.689 20.7714 142.114 21.1706C142.541 21.5724 143.116 21.756 143.799 21.756V21.156C143.224 21.156 142.812 21.0036 142.525 20.7334C142.235 20.4606 142.033 20.0312 141.953 19.4022L141.358 19.4778ZM141.607 19.068H143.159V18.468H141.607V19.068ZM143.159 19.068C143.88 19.068 144.472 18.9556 144.892 18.6894C145.335 18.4086 145.555 17.9768 145.555 17.44H144.955C144.955 17.7886 144.826 18.0208 144.571 18.1826C144.292 18.3591 143.836 18.468 143.159 18.468V19.068ZM145.555 17.44C145.555 16.9269 145.375 16.5008 144.982 16.2199L144.633 16.7081C144.837 16.8539 144.955 17.0785 144.955 17.44H145.555ZM144.992 16.2272C144.636 15.9509 144.181 15.828 143.655 15.828V16.428C144.09 16.428 144.402 16.5291 144.623 16.7008L144.992 16.2272ZM143.655 15.828C142.924 15.828 142.333 16.1457 141.906 16.756L142.397 17.1C142.717 16.6436 143.128 16.428 143.655 16.428V15.828ZM141.905 16.757C141.504 17.3352 141.307 18.0097 141.307 18.768H141.907C141.907 18.1183 142.074 17.5662 142.398 17.099L141.905 16.757ZM151.69 16.528L151.469 16.7303L151.473 16.7354L151.69 16.528ZM149.674 16.368L149.54 16.0997L149.54 16.0997L149.674 16.368ZM149.034 16.816L148.815 16.6113L148.814 16.6119L149.034 16.816ZM148.506 17.456L148.268 17.2731L148.206 17.354V17.456H148.506ZM148.506 22V22.3H148.806V22H148.506ZM147.802 22H147.502V22.3H147.802V22ZM147.29 15.952L147.082 15.7359L146.862 15.948L147.078 16.1641L147.29 15.952ZM147.722 15.536L147.89 15.2875L147.689 15.1514L147.514 15.3199L147.722 15.536ZM148.426 16.72L148.132 16.7777L148.27 17.4802L148.674 16.8894L148.426 16.72ZM152.874 21.312L152.65 21.5113L152.656 21.5179L152.662 21.5241L152.874 21.312ZM153.562 21.264L153.729 21.0144L153.493 20.857L153.322 21.084L153.562 21.264ZM154.138 21.648L154.389 21.8126L154.552 21.5636L154.305 21.3984L154.138 21.648ZM152.378 21.824L152.59 21.6119L152.59 21.6119L152.378 21.824ZM152.342 17.696C152.342 17.1279 152.219 16.6464 151.907 16.3206L151.473 16.7354C151.631 16.9003 151.742 17.1974 151.742 17.696H152.342ZM151.912 16.3257C151.606 15.9911 151.137 15.86 150.586 15.86V16.46C151.059 16.46 151.326 16.5742 151.469 16.7303L151.912 16.3257ZM150.586 15.86C150.212 15.86 149.862 15.9388 149.54 16.0997L149.808 16.6363C150.041 16.5199 150.299 16.46 150.586 16.46V15.86ZM149.54 16.0997C149.243 16.2482 148.996 16.4168 148.815 16.6113L149.254 17.0207C149.371 16.8952 149.551 16.7651 149.808 16.6363L149.54 16.0997ZM148.814 16.6119C148.667 16.7711 148.484 16.9928 148.268 17.2731L148.744 17.6389C148.955 17.3645 149.125 17.1596 149.254 17.0201L148.814 16.6119ZM148.206 17.456V22H148.806V17.456H148.206ZM148.506 21.7H147.802V22.3H148.506V21.7ZM148.102 22V17.488H147.502V22H148.102ZM148.102 17.488C148.102 16.7591 147.92 16.1573 147.502 15.7399L147.078 16.1641C147.343 16.4294 147.502 16.8516 147.502 17.488H148.102ZM147.498 16.1681L147.93 15.7521L147.514 15.3199L147.082 15.7359L147.498 16.1681ZM147.554 15.7845C147.835 15.9744 148.036 16.2898 148.132 16.7777L148.721 16.6623C148.603 16.0622 148.335 15.5883 147.89 15.2875L147.554 15.7845ZM148.674 16.8894C149.18 16.15 149.812 15.804 150.586 15.804V15.204C149.59 15.204 148.782 15.6687 148.179 16.5506L148.674 16.8894ZM150.586 15.804C151.264 15.804 151.716 15.9649 152 16.2337C152.28 16.4997 152.446 16.9198 152.446 17.552H153.046C153.046 16.8189 152.852 16.215 152.413 15.7983C151.976 15.3844 151.349 15.204 150.586 15.204V15.804ZM152.446 17.552V21.008H153.046V17.552H152.446ZM152.446 21.008C152.446 21.2025 152.526 21.3722 152.65 21.5113L153.098 21.1127C153.051 21.0598 153.046 21.0268 153.046 21.008H152.446ZM152.662 21.5241C152.805 21.6668 152.985 21.756 153.194 21.756V21.156C153.169 21.156 153.136 21.1492 153.086 21.0999L152.662 21.5241ZM153.194 21.756C153.446 21.756 153.654 21.6413 153.802 21.444L153.322 21.084C153.278 21.1427 153.242 21.156 153.194 21.156V21.756ZM153.396 21.5136L153.972 21.8976L154.305 21.3984L153.729 21.0144L153.396 21.5136ZM153.887 21.4834C153.718 21.741 153.498 21.86 153.194 21.86V22.46C153.702 22.46 154.11 22.2377 154.389 21.8126L153.887 21.4834ZM153.194 21.86C152.953 21.86 152.757 21.779 152.59 21.6119L152.166 22.0361C152.447 22.317 152.796 22.46 153.194 22.46V21.86ZM152.59 21.6119C152.423 21.4448 152.342 21.2493 152.342 21.008H151.742C151.742 21.4067 151.885 21.7552 152.166 22.0361L152.59 21.6119ZM152.342 21.008V17.696H151.742V21.008H152.342ZM161.226 16.464L161.402 16.707L161.402 16.707L161.226 16.464ZM160.314 17.424L160.07 17.249L160.014 17.3275V17.424H160.314ZM160.314 21.968V22.268H160.614V21.968H160.314ZM159.61 21.968H159.31V22.268H159.61V21.968ZM159.61 12.672V12.372H159.31V12.672H159.61ZM160.314 12.672H160.614V12.372H160.314V12.672ZM160.314 16.592H160.014V17.539L160.559 16.7647L160.314 16.592ZM164.682 21.264L164.458 21.4633L164.469 21.4765L164.483 21.4882L164.682 21.264ZM165.354 21.2L165.517 20.9483L165.269 20.7871L165.104 21.0336L165.354 21.2ZM165.946 21.584L166.197 21.7486L166.362 21.4964L166.109 21.3323L165.946 21.584ZM164.186 21.76L163.969 21.9672L163.974 21.9721L164.186 21.76ZM164.15 17.552C164.15 17.0302 164.018 16.584 163.701 16.2707C163.385 15.958 162.935 15.828 162.41 15.828V16.428C162.844 16.428 163.115 16.5353 163.279 16.6973C163.442 16.8587 163.55 17.1244 163.55 17.552H164.15ZM162.41 15.828C161.883 15.828 161.422 15.9514 161.05 16.221L161.402 16.707C161.648 16.5286 161.977 16.428 162.41 16.428V15.828ZM161.05 16.221C160.707 16.4691 160.382 16.8152 160.07 17.249L160.558 17.599C160.843 17.2008 161.126 16.9069 161.402 16.707L161.05 16.221ZM160.014 17.424V21.968H160.614V17.424H160.014ZM160.314 21.668H159.61V22.268H160.314V21.668ZM159.91 21.968V12.672H159.31V21.968H159.91ZM159.61 12.972H160.314V12.372H159.61V12.972ZM160.014 12.672V16.592H160.614V12.672H160.014ZM160.559 16.7647C161.041 16.0804 161.651 15.756 162.41 15.756V15.156C161.44 15.156 160.653 15.5889 160.069 16.4193L160.559 16.7647ZM162.41 15.756C163.081 15.756 163.529 15.9177 163.81 16.1881C164.089 16.4565 164.254 16.8812 164.254 17.52H164.854C164.854 16.7828 164.662 16.1755 164.226 15.7559C163.792 15.3383 163.168 15.156 162.41 15.156V15.756ZM164.254 17.52V20.944H164.854V17.52H164.254ZM164.254 20.944C164.254 21.142 164.329 21.318 164.458 21.4633L164.906 21.0647C164.865 21.018 164.854 20.9807 164.854 20.944H164.254ZM164.483 21.4882C164.622 21.6119 164.791 21.692 164.986 21.692V21.092C164.967 21.092 164.934 21.0868 164.881 21.0398L164.483 21.4882ZM164.986 21.692C165.241 21.692 165.46 21.5818 165.603 21.3664L165.104 21.0336C165.077 21.0742 165.05 21.092 164.986 21.092V21.692ZM165.191 21.4517L165.783 21.8357L166.109 21.3323L165.517 20.9483L165.191 21.4517ZM165.695 21.4194C165.528 21.6743 165.303 21.796 164.986 21.796V22.396C165.501 22.396 165.916 22.1764 166.197 21.7486L165.695 21.4194ZM164.986 21.796C164.758 21.796 164.567 21.7171 164.398 21.5479L163.974 21.9721C164.252 22.2509 164.595 22.396 164.986 22.396V21.796ZM164.403 21.5529C164.229 21.371 164.15 21.1721 164.15 20.944H163.55C163.55 21.3345 163.694 21.6797 163.969 21.9671L164.403 21.5529ZM164.15 20.944V17.552H163.55V20.944H164.15ZM171.94 20.848L172.195 20.6904L172.045 20.4475L171.795 20.5852L171.94 20.848ZM172.276 21.392L172.451 21.6356L172.678 21.4723L172.531 21.2344L172.276 21.392ZM167.78 16.48L168.016 16.665L168.018 16.6631L167.78 16.48ZM171.46 16.016L171.275 16.2525L171.279 16.2553L171.46 16.016ZM171.316 18.976L171.469 19.2342L171.47 19.2332L171.316 18.976ZM167.796 19.44V19.14H167.455L167.498 19.4778L167.796 19.44ZM167.748 18.768H167.448V19.068H167.748V18.768ZM170.948 16.464L170.764 16.701L170.774 16.7081L170.948 16.464ZM168.292 16.928L168.046 16.756L168.046 16.757L168.292 16.928ZM169.94 21.756C170.604 21.756 171.321 21.5312 172.085 21.1108L171.795 20.5852C171.087 20.9755 170.47 21.156 169.94 21.156V21.756ZM171.685 21.0056L172.021 21.5496L172.531 21.2344L172.195 20.6904L171.685 21.0056ZM172.101 21.1484C171.471 21.6008 170.755 21.828 169.94 21.828V22.428C170.875 22.428 171.715 22.1645 172.451 21.6356L172.101 21.1484ZM169.94 21.828C169.026 21.828 168.392 21.571 167.981 21.1054C167.563 20.6326 167.328 19.8929 167.328 18.832H166.728C166.728 19.9684 166.978 20.8767 167.531 21.5026C168.09 22.1356 168.913 22.428 169.94 22.428V21.828ZM167.328 18.832C167.328 17.9611 167.562 17.2449 168.016 16.665L167.544 16.295C166.995 16.9951 166.728 17.8469 166.728 18.832H167.328ZM168.018 16.6631C168.46 16.0884 169.044 15.804 169.796 15.804V15.204C168.863 15.204 168.102 15.5703 167.542 16.2969L168.018 16.6631ZM169.796 15.804C170.416 15.804 170.901 15.9605 171.275 16.2525L171.645 15.7795C171.144 15.3889 170.52 15.204 169.796 15.204V15.804ZM171.279 16.2553C171.631 16.5214 171.816 16.9015 171.816 17.44H172.416C172.416 16.7411 172.164 16.1719 171.641 15.7767L171.279 16.2553ZM171.816 17.44C171.816 18.0552 171.591 18.461 171.162 18.7188L171.47 19.2332C172.107 18.851 172.416 18.2328 172.416 17.44H171.816ZM171.163 18.7178C170.7 18.9918 170.086 19.14 169.3 19.14V19.74C170.157 19.74 170.886 19.5789 171.469 19.2342L171.163 18.7178ZM169.3 19.14H167.796V19.74H169.3V19.14ZM167.498 19.4778C167.589 20.1928 167.83 20.7714 168.254 21.1706C168.682 21.5724 169.257 21.756 169.94 21.756V21.156C169.365 21.156 168.953 21.0036 168.666 20.7334C168.375 20.4606 168.173 20.0312 168.094 19.4022L167.498 19.4778ZM167.748 19.068H169.3V18.468H167.748V19.068ZM169.3 19.068C170.021 19.068 170.612 18.9556 171.033 18.6894C171.476 18.4086 171.696 17.9768 171.696 17.44H171.096C171.096 17.7886 170.967 18.0208 170.711 18.1826C170.433 18.3591 169.977 18.468 169.3 18.468V19.068ZM171.696 17.44C171.696 16.9269 171.516 16.5008 171.122 16.2199L170.774 16.7081C170.978 16.8539 171.096 17.0785 171.096 17.44H171.696ZM171.132 16.2272C170.777 15.9509 170.322 15.828 169.796 15.828V16.428C170.23 16.428 170.543 16.5291 170.764 16.7008L171.132 16.2272ZM169.796 15.828C169.065 15.828 168.473 16.1457 168.046 16.756L168.538 17.1C168.857 16.6436 169.269 16.428 169.796 16.428V15.828ZM168.046 16.757C167.644 17.3352 167.448 18.0097 167.448 18.768H168.048C168.048 18.1183 168.214 17.5662 168.538 17.099L168.046 16.757ZM177.319 16.272L177.262 16.5665L177.619 16.6356V16.272H177.319ZM174.775 17.424L174.514 17.2766L174.475 17.3452V17.424H174.775ZM174.775 22V22.3H175.075V22H174.775ZM174.071 22H173.771V22.3H174.071V22ZM173.559 15.952L173.351 15.7359L173.131 15.948L173.347 16.1641L173.559 15.952ZM173.991 15.536L174.17 15.2951L173.966 15.1438L173.783 15.3199L173.991 15.536ZM174.695 16.656L174.406 16.736L174.598 17.432L174.956 16.8045L174.695 16.656ZM177.319 15.6H177.619V15.3541L177.378 15.3058L177.319 15.6ZM177.376 15.9775C177.034 15.9113 176.731 15.876 176.471 15.876V16.476C176.68 16.476 176.943 16.5047 177.262 16.5665L177.376 15.9775ZM176.471 15.876C175.657 15.876 175.01 16.3968 174.514 17.2766L175.036 17.5714C175.479 16.7872 175.962 16.476 176.471 16.476V15.876ZM174.475 17.424V22H175.075V17.424H174.475ZM174.775 21.7H174.071V22.3H174.775V21.7ZM174.371 22V17.488H173.771V22H174.371ZM174.371 17.488C174.371 16.7591 174.188 16.1573 173.771 15.7399L173.347 16.1641C173.612 16.4294 173.771 16.8516 173.771 17.488H174.371ZM173.767 16.1681L174.199 15.7521L173.783 15.3199L173.351 15.7359L173.767 16.1681ZM173.812 15.7769C174.076 15.9729 174.28 16.2818 174.406 16.736L174.984 16.576C174.832 16.0275 174.567 15.5897 174.17 15.2951L173.812 15.7769ZM174.956 16.8045C175.345 16.1198 175.875 15.804 176.567 15.804V15.204C175.637 15.204 174.919 15.6562 174.434 16.5075L174.956 16.8045ZM176.567 15.804C176.719 15.804 176.947 15.8315 177.26 15.8942L177.378 15.3058C177.051 15.2405 176.778 15.204 176.567 15.204V15.804ZM177.019 15.6V16.272H177.619V15.6H177.019ZM183.534 20.848L183.789 20.6904L183.639 20.4475L183.389 20.5852L183.534 20.848ZM183.87 21.392L184.045 21.6356L184.272 21.4723L184.125 21.2344L183.87 21.392ZM179.374 16.48L179.61 16.665L179.611 16.6631L179.374 16.48ZM183.054 16.016L182.869 16.2525L182.873 16.2553L183.054 16.016ZM182.91 18.976L183.063 19.2342L183.064 19.2332L182.91 18.976ZM179.39 19.44V19.14H179.049L179.092 19.4778L179.39 19.44ZM179.342 18.768H179.042V19.068H179.342V18.768ZM182.542 16.464L182.357 16.701L182.367 16.7081L182.542 16.464ZM179.886 16.928L179.64 16.756L179.639 16.757L179.886 16.928ZM181.534 21.756C182.198 21.756 182.915 21.5312 183.678 21.1108L183.389 20.5852C182.68 20.9755 182.064 21.156 181.534 21.156V21.756ZM183.279 21.0056L183.615 21.5496L184.125 21.2344L183.789 20.6904L183.279 21.0056ZM183.695 21.1484C183.065 21.6008 182.348 21.828 181.534 21.828V22.428C182.469 22.428 183.309 22.1645 184.045 21.6356L183.695 21.1484ZM181.534 21.828C180.62 21.828 179.986 21.571 179.575 21.1054C179.157 20.6326 178.922 19.8929 178.922 18.832H178.322C178.322 19.9684 178.572 20.8767 179.125 21.5026C179.684 22.1356 180.507 22.428 181.534 22.428V21.828ZM178.922 18.832C178.922 17.9611 179.156 17.2449 179.61 16.665L179.138 16.295C178.589 16.9951 178.322 17.8469 178.322 18.832H178.922ZM179.611 16.6631C180.054 16.0884 180.637 15.804 181.39 15.804V15.204C180.457 15.204 179.696 15.5703 179.136 16.2969L179.611 16.6631ZM181.39 15.804C182.009 15.804 182.495 15.9605 182.869 16.2525L183.238 15.7795C182.738 15.3889 182.114 15.204 181.39 15.204V15.804ZM182.873 16.2553C183.225 16.5214 183.41 16.9015 183.41 17.44H184.01C184.01 16.7411 183.757 16.1719 183.235 15.7767L182.873 16.2553ZM183.41 17.44C183.41 18.0552 183.185 18.461 182.755 18.7188L183.064 19.2332C183.701 18.851 184.01 18.2328 184.01 17.44H183.41ZM182.757 18.7178C182.294 18.9918 181.68 19.14 180.894 19.14V19.74C181.751 19.74 182.48 19.5789 183.063 19.2342L182.757 18.7178ZM180.894 19.14H179.39V19.74H180.894V19.14ZM179.092 19.4778C179.183 20.1928 179.424 20.7714 179.848 21.1706C180.276 21.5724 180.85 21.756 181.534 21.756V21.156C180.958 21.156 180.547 21.0036 180.259 20.7334C179.969 20.4606 179.767 20.0312 179.687 19.4022L179.092 19.4778ZM179.342 19.068H180.894V18.468H179.342V19.068ZM180.894 19.068C181.614 19.068 182.206 18.9556 182.626 18.6894C183.07 18.4086 183.29 17.9768 183.29 17.44H182.69C182.69 17.7886 182.561 18.0208 182.305 18.1826C182.027 18.3591 181.57 18.468 180.894 18.468V19.068ZM183.29 17.44C183.29 16.9269 183.109 16.5008 182.716 16.2199L182.367 16.7081C182.571 16.8539 182.69 17.0785 182.69 17.44H183.29ZM182.726 16.2272C182.371 15.9509 181.915 15.828 181.39 15.828V16.428C181.824 16.428 182.137 16.5291 182.358 16.7008L182.726 16.2272ZM181.39 15.828C180.659 15.828 180.067 16.1457 179.64 16.756L180.132 17.1C180.451 16.6436 180.862 16.428 181.39 16.428V15.828ZM179.639 16.757C179.238 17.3352 179.042 18.0097 179.042 18.768H179.642C179.642 18.1183 179.808 17.5662 180.132 17.099L179.639 16.757ZM186.27 14.992L186.559 14.9143L186.5 14.692H186.27V14.992ZM186.446 15.648L186.504 15.9422L186.818 15.8794L186.735 15.5703L186.446 15.648ZM185.422 15.392L185.209 15.6041L185.215 15.6097L185.221 15.615L185.422 15.392ZM185.822 13.44L185.665 13.1843L185.665 13.1843L185.822 13.44ZM189.31 13.728L189.097 13.9401L189.1 13.9424L189.31 13.728ZM188.51 17.936L188.644 18.2043L188.651 18.2005L188.659 18.1963L188.51 17.936ZM188.222 18.096L188.073 17.8354L188.064 17.8405L188.222 18.096ZM187.934 18.288L188.088 18.5452L188.105 18.5349L188.121 18.5223L187.934 18.288ZM187.694 18.448L187.522 18.2022L187.522 18.2022L187.694 18.448ZM187.422 18.672L187.617 18.8998L187.626 18.8923L187.634 18.8841L187.422 18.672ZM187.214 18.88L186.986 18.6847L186.983 18.6879L187.214 18.88ZM187.038 20.08L187.102 20.373L187.374 20.3133L187.335 20.0376L187.038 20.08ZM186.382 20.224L186.088 20.2877L186.152 20.5815L186.446 20.517L186.382 20.224ZM186.606 18.496L186.364 18.3174L186.36 18.3234L186.606 18.496ZM187.374 17.808L187.229 17.5453L187.225 17.5475L187.374 17.808ZM188.286 17.296L188.434 17.5565L188.434 17.5565L188.286 17.296ZM189.038 16.608L188.796 16.4294L188.792 16.4354L189.038 16.608ZM188.814 14.208L188.601 14.4202L188.605 14.4233L188.814 14.208ZM186.334 13.92L186.458 14.1931L186.458 14.1931L186.334 13.92ZM186.478 21.76L186.69 21.5479L186.69 21.5479L186.478 21.76ZM186.478 20.896L186.69 21.1081L186.69 21.1081L186.478 20.896ZM187.342 20.896L187.554 20.6839L187.554 20.6839L187.342 20.896ZM187.342 21.76L187.554 21.9721L187.554 21.9721L187.342 21.76ZM185.506 14.624C185.506 14.8079 185.581 14.9674 185.705 15.0921L186.13 14.6679C186.105 14.6433 186.106 14.6321 186.106 14.624H185.506ZM185.705 15.0921C185.843 15.2296 186.018 15.292 186.206 15.292V14.692C186.158 14.692 186.142 14.6798 186.13 14.6679L185.705 15.0921ZM186.206 15.292H186.27V14.692H186.206V15.292ZM185.98 15.0697L186.156 15.7257L186.735 15.5703L186.559 14.9143L185.98 15.0697ZM186.387 15.3538C186.284 15.3744 186.228 15.38 186.206 15.38V15.98C186.29 15.98 186.394 15.9643 186.504 15.9422L186.387 15.3538ZM186.206 15.38C185.964 15.38 185.776 15.3074 185.622 15.169L185.221 15.615C185.494 15.8606 185.828 15.98 186.206 15.98V15.38ZM185.634 15.1799C185.492 15.0382 185.418 14.8607 185.418 14.624H184.818C184.818 15.0059 184.946 15.3405 185.209 15.6041L185.634 15.1799ZM185.418 14.624C185.418 14.2387 185.588 13.9356 185.979 13.6957L185.665 13.1843C185.117 13.5204 184.818 14.0066 184.818 14.624H185.418ZM185.979 13.6957C186.395 13.4401 186.883 13.308 187.454 13.308V12.708C186.787 12.708 186.187 12.8639 185.665 13.1843L185.979 13.6957ZM187.454 13.308C188.141 13.308 188.68 13.5231 189.097 13.9401L189.522 13.5159C188.979 12.9729 188.28 12.708 187.454 12.708V13.308ZM189.1 13.9424C189.527 14.3608 189.746 14.8942 189.746 15.568H190.346C190.346 14.7485 190.073 14.0552 189.519 13.5135L189.1 13.9424ZM189.746 15.568C189.746 16.4303 189.312 17.1305 188.36 17.6757L188.659 18.1963C189.755 17.5682 190.346 16.6897 190.346 15.568H189.746ZM188.375 17.6677C188.324 17.6935 188.22 17.7514 188.073 17.8355L188.37 18.3565C188.522 18.2699 188.61 18.2212 188.644 18.2043L188.375 17.6677ZM188.064 17.8405C187.926 17.9259 187.815 17.9984 187.746 18.0537L188.121 18.5223C188.158 18.4923 188.24 18.4368 188.379 18.3515L188.064 17.8405ZM187.779 18.0308C187.716 18.0685 187.629 18.1269 187.522 18.2022L187.866 18.6938C187.971 18.6198 188.044 18.5715 188.088 18.5452L187.779 18.0308ZM187.522 18.2022C187.404 18.2847 187.299 18.3704 187.209 18.4599L187.634 18.8841C187.694 18.8243 187.77 18.7606 187.866 18.6938L187.522 18.2022ZM187.226 18.4442C187.14 18.5182 187.06 18.5984 186.986 18.6848L187.441 19.0752C187.495 19.0122 187.554 18.9538 187.617 18.8998L187.226 18.4442ZM186.983 18.6879C186.779 18.9328 186.674 19.2191 186.674 19.536H187.274C187.274 19.3623 187.328 19.2112 187.444 19.0721L186.983 18.6879ZM186.674 19.536C186.674 19.6267 186.699 19.834 186.741 20.1224L187.335 20.0376C187.313 19.8893 187.298 19.7721 187.288 19.6849C187.282 19.6413 187.279 19.6066 187.276 19.58C187.275 19.5668 187.275 19.5563 187.274 19.5484C187.274 19.5445 187.274 19.5414 187.274 19.5392C187.274 19.5369 187.274 19.5359 187.274 19.536H186.674ZM186.973 19.787L186.317 19.931L186.446 20.517L187.102 20.373L186.973 19.787ZM186.675 20.1603C186.625 19.9323 186.602 19.7245 186.602 19.536H186.002C186.002 19.7741 186.031 20.025 186.088 20.2877L186.675 20.1603ZM186.602 19.536C186.602 19.1828 186.689 18.8987 186.851 18.6686L186.36 18.3234C186.117 18.6693 186.002 19.0785 186.002 19.536H186.602ZM186.847 18.6746C187.036 18.4185 187.261 18.2177 187.522 18.0685L187.225 17.5475C186.889 17.7397 186.602 17.9975 186.365 18.3174L186.847 18.6746ZM187.519 18.0707C187.829 17.8993 188.134 17.7279 188.434 17.5565L188.137 17.0355C187.839 17.2054 187.537 17.3754 187.229 17.5453L187.519 18.0707ZM188.434 17.5565C188.772 17.3634 189.056 17.1038 189.283 16.7806L188.792 16.4354C188.614 16.6882 188.396 16.8872 188.137 17.0355L188.434 17.5565ZM189.279 16.7866C189.535 16.4402 189.658 16.0288 189.658 15.568H189.058C189.058 15.9178 188.967 16.1998 188.797 16.4294L189.279 16.7866ZM189.658 15.568C189.658 14.9409 189.449 14.407 189.023 13.9927L188.605 14.4233C188.903 14.713 189.058 15.0857 189.058 15.568H189.658ZM189.026 13.9959C188.612 13.5821 188.085 13.38 187.47 13.38V13.98C187.942 13.98 188.311 14.1299 188.601 14.4201L189.026 13.9959ZM187.47 13.38C187.024 13.38 186.602 13.4683 186.209 13.6469L186.458 14.1931C186.769 14.0517 187.105 13.98 187.47 13.98V13.38ZM186.209 13.6469C186.002 13.7413 185.824 13.8676 185.698 14.036C185.568 14.2082 185.506 14.4082 185.506 14.624H186.106C186.106 14.5305 186.131 14.4585 186.178 14.396C186.227 14.3297 186.313 14.2587 186.458 14.1931L186.209 13.6469ZM186.69 21.5479C186.63 21.4886 186.602 21.4216 186.602 21.328H186.002C186.002 21.5757 186.09 21.7968 186.265 21.9721L186.69 21.5479ZM186.602 21.328C186.602 21.2344 186.63 21.1674 186.69 21.1081L186.265 20.6839C186.09 20.8592 186.002 21.0803 186.002 21.328H186.602ZM186.69 21.1081C186.749 21.0488 186.816 21.02 186.91 21.02V20.42C186.662 20.42 186.441 20.5085 186.265 20.6839L186.69 21.1081ZM186.91 21.02C187.003 21.02 187.07 21.0488 187.129 21.1081L187.554 20.6839C187.378 20.5085 187.157 20.42 186.91 20.42V21.02ZM187.129 21.1081C187.189 21.1674 187.218 21.2344 187.218 21.328H187.818C187.818 21.0803 187.729 20.8592 187.554 20.6839L187.129 21.1081ZM187.218 21.328C187.218 21.4216 187.189 21.4886 187.129 21.5479L187.554 21.9721C187.729 21.7968 187.818 21.5757 187.818 21.328H187.218ZM187.129 21.5479C187.07 21.6072 187.003 21.636 186.91 21.636V22.236C187.157 22.236 187.378 22.1475 187.554 21.9721L187.129 21.5479ZM186.91 21.636C186.816 21.636 186.749 21.6072 186.69 21.5479L186.265 21.9721C186.441 22.1475 186.662 22.236 186.91 22.236V21.636Z" fill="white"/>
</g>
<defs>
<filter id="filter0_d" x="0" y="0" width="219" height="41" filterUnits="userSpaceOnUse" color-interpolation-filters="sRGB">
<feFlood flood-opacity="0" result="BackgroundImageFix"/>
<feColorMatrix in="SourceAlpha" type="matrix" values="0 0 0 0 0 0 0 0 0 0 0 0 0 0 0 0 0 0 127 0"/>
<feOffset dy="4"/>
<feGaussianBlur stdDeviation="2"/>
<feColorMatrix type="matrix" values="0 0 0 0 0 0 0 0 0 0 0 0 0 0 0 0 0 0 0.25 0"/>
<feBlend mode="normal" in2="BackgroundImageFix" result="effect1_dropShadow"/>
<feBlend mode="normal" in="SourceGraphic" in2="effect1_dropShadow" result="shape"/>
</filter>
<filter id="filter1_d" x="25.7548" y="12.372" width="168.591" height="21.576" filterUnits="userSpaceOnUse" color-interpolation-filters="sRGB">
<feFlood flood-opacity="0" result="BackgroundImageFix"/>
<feColorMatrix in="SourceAlpha" type="matrix" values="0 0 0 0 0 0 0 0 0 0 0 0 0 0 0 0 0 0 127 0"/>
<feOffset dy="4"/>
<feGaussianBlur stdDeviation="2"/>
<feColorMatrix type="matrix" values="0 0 0 0 0 0 0 0 0 0 0 0 0 0 0 0 0 0 0.25 0"/>
<feBlend mode="normal" in2="BackgroundImageFix" result="effect1_dropShadow"/>
<feBlend mode="normal" in="SourceGraphic" in2="effect1_dropShadow" result="shape"/>
</filter>
</defs>
</svg>
